<svg width="38" height="24" viewBox="0 0 38 24" fill="none" xmlns="http://www.w3.org/2000/svg">
<g clip-path="url(#clip0_2272_5516)">
<path d="M31.9541 11.232C32.4335 11.6318 32.4335 12.3682 31.9541 12.768L23.7238 19.6319C23.0726 20.175 22.0833 19.7119 22.0833 18.8639V17.0094C22.0833 16.4574 21.636 16.0097 21.0839 16.0094L6.12441 16.0006C5.57236 16.0003 5.125 15.5526 5.125 15.0006V9C5.125 8.44772 5.57272 8 6.125 8L21.0833 8C21.6356 8 22.0833 7.55229 22.0833 7V5.1361C22.0833 4.28808 23.0726 3.82499 23.7238 4.36812L31.9541 11.232Z" fill="#173EA5"/>
</g>
<defs>
<clipPath id="clip0_2272_5516">
<rect width="24" height="37" fill="white" transform="translate(37.5) rotate(90)"/>
</clipPath>
</defs>
</svg>
