<svg width="204" height="204" viewBox="0 0 204 204" fill="none" xmlns="http://www.w3.org/2000/svg">
<path fill-rule="evenodd" clip-rule="evenodd" d="M136.345 0.199728C136.493 -0.0121272 136.785 -0.0636138 136.997 0.0847293L151.482 10.2272C151.694 10.3755 151.745 10.6675 151.597 10.8793L131.436 39.6714C141.237 42.8026 147.915 46.1801 147.915 46.1801C147.915 46.1801 131.593 74.2548 103.91 74.2548C76.2271 74.2548 56.5558 48.0886 56.5558 48.0886C56.5558 48.0886 63.5309 43.6373 73.8703 39.8195L51.757 13.4662C51.5909 13.2681 51.6168 12.9727 51.8148 12.8065L65.3605 1.44021C65.5589 1.27397 65.8542 1.29981 66.0203 1.49793L94.0193 34.8658C96.4167 34.5947 98.8592 34.4431 101.324 34.4431C104.866 34.4431 108.405 34.7124 111.859 35.1694L136.345 0.199728ZM141.821 75.5844C149.209 70.3083 160.387 56.5375 160.387 56.5375C160.387 56.5375 188.941 79.1648 188.941 127.143C188.941 175.121 139.576 203.997 139.576 203.997C139.576 203.997 115.991 180.178 110.201 149.984C104.411 119.79 118.766 86.263 118.766 86.263C118.766 86.263 134.434 80.8605 141.821 75.5844V75.5844ZM62.2603 75.5844C54.8728 70.3083 43.6943 56.5375 43.6943 56.5375C43.6943 56.5375 15.1406 79.1648 15.1406 127.143C15.1406 175.121 64.5055 203.997 64.5055 203.997C64.5055 203.997 88.091 180.178 93.8811 149.984C99.6708 119.79 85.3163 86.263 85.3163 86.263C85.3163 86.263 69.6481 80.8605 62.2603 75.5844V75.5844Z" fill="url(#paint0_linear_1417_34688)"/>
<defs>
<linearGradient id="paint0_linear_1417_34688" x1="15.3253" y1="-0.00268552" x2="130.076" y2="232.874" gradientUnits="userSpaceOnUse">
<stop stop-color="white"/>
<stop offset="1" stop-color="white" stop-opacity="0"/>
</linearGradient>
</defs>
</svg>
