<svg width="20" height="20" viewBox="0 0 20 20" fill="none" xmlns="http://www.w3.org/2000/svg">
<path fill-rule="evenodd" clip-rule="evenodd" d="M13.9475 0.0195815C13.9646 -0.00118896 13.9981 -0.00623674 14.0225 0.00830693L15.6894 1.00268C15.7138 1.01722 15.7197 1.04585 15.7026 1.06662L13.3827 3.88941C14.5105 4.19639 15.2789 4.52753 15.2789 4.52753C15.2789 4.52753 13.4007 7.28 10.2151 7.28C7.02949 7.28 4.76583 4.71464 4.76583 4.71464C4.76583 4.71464 5.56848 4.27823 6.75829 3.90393L4.21361 1.32024C4.1945 1.30081 4.19748 1.27186 4.22026 1.25556L5.77903 0.141199C5.80186 0.124901 5.83583 0.127434 5.85495 0.146859L9.07693 3.41827C9.3528 3.39169 9.63386 3.37683 9.91749 3.37683C10.3251 3.37683 10.7323 3.40323 11.1298 3.44803L13.9475 0.0195815ZM14.5777 7.41035C15.4278 6.89308 16.7142 5.54298 16.7142 5.54298C16.7142 5.54298 20 7.76137 20 12.4652C20 17.169 14.3194 20 14.3194 20C14.3194 20 11.6053 17.6648 10.939 14.7045C10.2727 11.7443 11.9246 8.45728 11.9246 8.45728C11.9246 8.45728 13.7276 7.92762 14.5777 7.41035ZM5.42227 7.41035C4.57216 6.89308 3.28579 5.54298 3.28579 5.54298C3.28579 5.54298 0 7.76137 0 12.4652C0 17.169 5.68063 20 5.68063 20C5.68063 20 8.39472 17.6648 9.06102 14.7045C9.72726 11.7443 8.07542 8.45728 8.07542 8.45728C8.07542 8.45728 6.27242 7.92762 5.42227 7.41035Z" fill="#91C12F"/>
</svg>
