<svg width="86" height="86" viewBox="0 0 86 86" fill="none" xmlns="http://www.w3.org/2000/svg">
<path d="M57.5567 18.4313L11.7401 53.9624C11.268 54.015 10.5664 53.8968 9.63521 53.6077C8.46799 53.2399 7.35979 52.6946 6.3106 51.9721C3.32042 49.9226 1.51058 46.9797 0.88107 43.1435C0.264674 39.4649 0.828611 35.517 2.57288 31.2997C3.14993 29.9071 3.85813 28.4685 4.69748 26.984L6.23191 24.4024C7.47782 22.1821 8.50733 19.9881 9.32045 17.8204C10.6713 14.1943 11.0385 11.5142 10.4221 9.78004L11.0516 9.85886C11.5237 9.95083 11.9041 10.1216 12.1926 10.3712C12.1533 9.95083 12.0418 9.45816 11.8582 8.89324C11.4778 7.73711 10.9336 6.76491 10.2254 5.97664L12.35 5.68104C14.1467 5.69418 15.9697 6.20656 17.8188 7.21817L17.6811 6.1343C17.6287 5.39858 17.7008 4.99131 17.8975 4.91248C18.1992 4.79424 18.632 5.08327 19.1959 5.77958C19.209 5.20152 19.3336 4.54463 19.5697 3.80891C20.0287 2.36375 20.8025 1.27331 21.891 0.537598L22.973 2.52797C23.9828 3.95999 25.2156 4.9519 26.6713 5.50368C27.9435 6.00292 30.8287 6.38392 35.3271 6.64667C39.6812 6.90943 42.7501 7.44808 44.5337 8.26262L46.4222 8.42027C47.9567 8.61734 49.3731 8.97863 50.6714 9.50414C54.8551 11.1989 57.1502 14.1746 57.5567 18.4313Z" fill="#68AE28"/>
<path d="M2.23858 47.0062C-0.725365 41.4095 -0.017165 34.9786 4.36318 27.7134C2.14678 33.586 2.89432 38.2827 6.60581 41.8037C8.21894 43.3276 10.2517 44.4444 12.7042 45.1538C15.1042 45.837 17.6485 46.0603 20.337 45.8238L11.1698 54.1203C9.83206 54.0021 8.34353 53.3518 6.70418 52.1694C4.82876 50.7899 3.34023 49.0689 2.23858 47.0062Z" fill="#56931F"/>
<path d="M75.5371 15.8302C76.7043 16.3425 77.7207 18.0833 78.5863 21.0524C79.3601 23.7457 79.6224 25.6507 79.3732 26.7674C80.9207 28.5672 82.4289 32.0816 83.8978 37.3104C85.5634 43.1699 85.8453 47.4331 84.7437 50.1001C84.3896 50.954 83.3535 52.1167 81.6355 53.5882C79.8519 55.1384 78.0879 56.334 76.3437 57.1748L77.2289 58.6134C77.9371 59.8746 78.5732 61.2344 79.1371 62.6927C80.9338 67.396 81.6814 72.2701 81.3797 77.315C81.2879 78.9178 79.9633 80.2316 77.406 81.2564C74.901 82.2417 72.2322 82.5701 69.3994 82.2417C68.442 82.1103 67.1764 80.987 65.6026 78.8719C63.8059 76.4151 62.737 73.8664 62.3961 71.2257C59.996 72.6183 57.9698 73.5576 56.3173 74.0437L55.8059 74.9108C55.36 75.6203 54.8354 76.2771 54.2321 76.8815C52.3304 78.8259 50.0812 79.9097 47.4845 80.1331C44.9009 80.3564 42.8943 80.1528 41.4648 79.5222C41.0189 79.3251 40.6517 79.0952 40.3632 78.8324L40.0878 78.4974L24.3697 79.0295L22.7565 80.4484C21.3139 81.4074 19.6483 81.9133 17.7598 81.9658C15.1762 82.0446 13.1434 81.8082 11.6614 81.2564C9.7991 80.5469 8.47451 79.2529 7.68762 77.3742C6.54663 74.6678 5.94335 71.5672 5.87777 68.0726C5.78597 63.5269 6.80237 59.8089 8.92697 56.9186C10.9729 54.1334 13.6417 51.2956 16.9336 48.4053C17.8516 47.6039 20.35 45.5675 24.4287 42.2962C26.5139 40.6409 28.3697 39.0381 29.9959 37.4878C31.6484 35.9113 32.6517 34.7814 33.0058 34.0983C33.3861 31.4838 33.8845 28.83 34.5009 26.1367C35.7468 20.7503 36.9533 17.8731 38.1205 17.5052C39.2878 17.1505 41.0058 17.5249 43.2747 18.6285C44.4025 19.1934 45.4124 19.7846 46.3042 20.4021L47.6419 19.9291C48.8222 19.5744 50.114 19.2723 51.5173 19.0226C56.0026 18.2475 60.7633 18.2015 65.7994 18.8847C66.56 18.0701 68.2387 17.2819 70.8354 16.5199C73.3404 15.7842 74.9076 15.5543 75.5371 15.8302Z" fill="#7CBEB3"/>
<path d="M79.0986 23.6731L79.4921 26.7671L77.4658 23.7519C77.6757 22.8717 77.7675 21.6827 77.7412 20.185L77.6232 18.2144C78.2265 19.515 78.7183 21.3346 79.0986 23.6731Z" fill="#68A198"/>
<path d="M34.0484 27.1614C35.1107 22.2741 36.1533 19.4495 37.1763 18.6875C36.9271 21.5253 36.8418 24.3302 36.9205 27.1023C36.973 28.7313 37.1435 31.2144 37.432 34.5514C37.6025 36.5352 37.3992 38.2957 36.8222 39.8328C36.3107 41.1728 35.6418 42.0859 34.8156 42.572C34.0025 43.045 33.3336 42.9399 32.809 42.2567C32.2451 41.5078 32.0549 40.2203 32.2385 38.3942C32.6058 34.755 33.209 31.0107 34.0484 27.1614Z" fill="#68A198"/>
<path d="M69.5568 77.2559C70.5667 79.1478 71.7733 80.3302 73.1765 80.8032L72.429 82.3009C70.4487 82.695 68.6978 82.176 67.1765 80.744C65.3536 78.9967 63.7404 75.8239 62.3371 71.2257C60.0683 72.6052 57.5502 73.6365 54.783 74.3197C52.0551 75.0028 48.7764 75.4167 44.9469 75.5612C44.3436 75.7582 43.9043 76.1786 43.6289 76.8224C43.3535 77.4399 43.3469 77.9982 43.6092 78.4975L42.5075 79.7981L40.1469 78.3595C40.2125 77.9128 40.5797 76.5793 41.2485 74.3591C41.9043 72.2307 42.3174 70.3849 42.4879 68.8215C42.9862 64.1444 41.6879 59.9141 38.5928 56.1304C41.3469 58.9024 46.1731 60.6432 53.0715 61.3526C60.4421 62.1015 66.7044 61.4315 71.8585 59.3426C70.206 60.4067 69.0257 62.0621 68.3175 64.3086C67.688 66.3319 67.4978 68.5719 67.747 71.0286C67.9962 73.3934 68.5995 75.4692 69.5568 77.2559Z" fill="#68A198"/>
<path d="M5.68102 65.9443C6.24495 70.5557 8.763 73.5183 13.2351 74.832C14.9532 75.3313 16.763 75.5152 18.6647 75.3838C20.3958 75.2656 21.8188 74.924 22.9336 74.3591L24.3696 79.2069C23.3467 80.2054 21.9696 80.9871 20.2385 81.552C16.7761 82.6819 13.2942 82.1892 9.79251 80.074C8.1007 79.0493 6.88758 76.448 6.15315 72.2702C5.91708 70.8644 5.75971 69.439 5.68102 67.9938C5.61544 66.7852 5.61544 66.102 5.68102 65.9443Z" fill="#68A198"/>
<path d="M47.8001 33.8224C48.3115 33.7304 48.8558 33.8158 49.4329 34.0786C47.4525 35.6026 46.4164 37.9411 46.3246 41.0942C46.2328 43.9713 46.8886 46.6711 48.2919 49.1936C45.5378 48.8914 43.5968 48.2608 42.4689 47.3018C42.141 47.0127 42.0033 46.2048 42.0558 44.8778C42.1082 43.4984 42.3509 42.0532 42.7836 40.5424C43.9115 36.5222 45.5837 34.2822 47.8001 33.8224Z" fill="white"/>
<path d="M54.6059 41.3307C55.2223 42.986 55.6026 44.4772 55.7469 45.8041C55.9043 47.223 55.7469 48.1689 55.2747 48.6419C54.96 48.9572 54.1141 49.1739 52.737 49.2922C51.3337 49.3973 49.8518 49.3644 48.2911 49.1936C46.8878 46.6712 46.2321 43.9714 46.3239 41.0942C46.4157 37.9411 47.4518 35.6026 49.4321 34.0786C51.3862 34.9851 53.1108 37.4025 54.6059 41.3307Z" fill="#D60040"/>
<path d="M77.642 32.8369C79.2813 34.177 80.2584 36.1805 80.5731 38.8475C80.7699 40.516 80.6912 42.861 80.3371 45.8827C79.76 46.1061 79.2026 46.2572 78.6649 46.336C78.1141 46.428 77.701 46.428 77.4256 46.336C76.6518 46.0864 76.2649 44.1026 76.2649 40.3846C76.2518 36.5878 76.7108 34.0719 77.642 32.8369Z" fill="#D60040"/>
<path d="M77.6426 32.837C77.8786 32.5086 78.1278 32.3181 78.3901 32.2655C79.6623 31.9896 80.8951 33.5465 82.0885 36.936C83.2557 40.2993 83.4852 42.7035 82.777 44.1487C82.4492 44.8318 81.636 45.4099 80.3377 45.8828C80.6918 42.8612 80.7705 40.5161 80.5737 38.8476C80.259 36.1806 79.2819 34.1771 77.6426 32.837Z" fill="white"/>
<path d="M66.0951 30.8267C65.7147 30.9712 64.7246 30.5705 63.1246 29.6246C61.4459 28.6524 60.6393 27.8576 60.7049 27.2401C60.7967 26.4256 62.1541 25.3023 64.777 23.8703C67.4393 22.4251 69.2098 21.893 70.0885 22.274C70.6525 22.5105 70.3574 23.9031 69.2033 26.4518C68.0361 29.0137 67 30.472 66.0951 30.8267Z" fill="#006359"/>
<path d="M57.3409 32.5217C57.3015 32.3509 57.4982 32.029 57.931 31.5561C58.3769 31.07 58.7769 30.7809 59.131 30.689L59.5638 31.2999C59.931 31.9173 60.2982 32.7844 60.6655 33.9012L60.4097 34.5121C60.1605 34.9587 59.8523 35.2675 59.4851 35.4383L58.5409 34.5318C57.8851 33.8092 57.4851 33.1392 57.3409 32.5217Z" fill="#006359"/>
<path d="M72.5477 36.8175C72.9542 39.1429 72.987 40.4436 72.646 40.7195C72.3444 40.9691 71.4264 40.8705 69.8919 40.4239C68.3444 39.9772 67.4657 39.5436 67.2559 39.1232C67.3214 38.151 67.8198 36.9358 68.7509 35.4775C69.7083 34.0192 70.4821 33.29 71.0723 33.29C71.6493 33.29 72.1411 34.4659 72.5477 36.8175Z" fill="#006359"/>
<path d="M73.7277 71.0876C73.6752 70.3388 74.1342 69.2681 75.1047 67.8754C76.049 66.5091 76.731 65.8522 77.1506 65.9048C77.7801 65.9705 78.2129 67.2908 78.449 69.8658C78.672 72.454 78.4687 73.8531 77.8392 74.0633C77.1441 74.2998 76.3113 74.1684 75.3408 73.6692C74.226 73.078 73.6883 72.2175 73.7277 71.0876Z" fill="#006359"/>
<path d="M11.367 60.0122L14.6129 60.1502C16.0686 60.4392 16.908 60.7611 17.1309 61.1158C17.4981 61.707 17.2555 62.9551 16.4031 64.8601C15.5637 66.7519 14.8555 67.7241 14.2785 67.7766C13.7801 67.8161 12.7703 67.3168 11.2489 66.2789C9.71451 65.241 8.95385 64.5185 8.96696 64.1112C8.98008 63.5857 9.23582 62.8368 9.73418 61.8646C10.285 60.7742 10.8293 60.1567 11.367 60.0122Z" fill="#006359"/>
<path d="M30.0747 43.1236C30.4157 43.7148 29.8649 45.357 28.4223 48.0503C26.9796 50.7435 25.8714 52.1755 25.0977 52.3463C24.3895 52.5171 23.2354 52.2084 21.6354 51.4201C20.1272 50.6975 19.1239 50.0341 18.6255 49.4297C18.4681 49.2327 18.573 48.6546 18.9403 47.6955L19.5304 46.2964L22.1665 44.2075C23.9501 42.8017 24.9468 42.0726 25.1567 42.02L27.6157 42.2368C29.0583 42.4864 29.878 42.782 30.0747 43.1236Z" fill="#006359"/>
<path d="M50.0421 36.0688C50.4618 36.0688 50.829 36.4827 51.1438 37.3104C51.4585 38.1906 51.6094 39.2876 51.5962 40.6014C51.57 41.8495 51.3995 42.8348 51.0848 43.5574C50.7962 44.2143 50.4421 44.5427 50.0225 44.5427C49.629 44.5427 49.288 44.188 48.9995 43.4786C48.6848 42.7297 48.5143 41.7838 48.488 40.6408C48.4356 39.2613 48.5798 38.138 48.9208 37.271C49.2225 36.4695 49.5962 36.0688 50.0421 36.0688Z" fill="white"/>
<path d="M76.7183 36.5025L77.1118 34.7289C77.2691 34.5187 77.42 34.4202 77.5642 34.4333C77.8003 34.4464 78.0232 34.7026 78.2331 35.2018C78.5347 35.8719 78.6987 36.8178 78.7249 38.0396C78.738 39.1957 78.6331 40.0957 78.4101 40.7394C78.2003 41.3175 77.938 41.6065 77.6232 41.6065C77.4265 41.6065 77.2298 41.462 77.0331 41.173C76.8232 40.8577 76.679 40.4438 76.6003 39.9315C76.4429 39.0249 76.4823 37.882 76.7183 36.5025Z" fill="white"/>
<path d="M68.3376 19.7912C64.7442 19.0949 61.1048 18.8256 57.4196 18.9833C53.4589 19.1409 49.8195 19.7847 46.5015 20.9145C46.3835 20.9539 46.2195 20.8225 46.0097 20.5204C45.7867 20.2182 45.7343 20.0408 45.8523 19.9883C49.6163 18.7139 53.695 18.0308 58.0884 17.9388C61.9442 17.8468 65.4655 18.2081 68.6524 19.0227C70.2786 19.4431 71.0524 19.7518 70.9737 19.9489L68.3376 19.7912Z" fill="#0D131A"/>
<path d="M78.9601 25.2891C81.6224 29.1516 83.5634 33.6316 84.7831 38.7291C85.8454 43.1696 86.1077 46.6052 85.57 49.0357C84.9798 51.7289 82.0421 54.4878 76.7569 57.3125C71.5109 60.124 66.4421 61.6808 61.5502 61.983C56.3174 62.2983 51.3928 61.8647 46.7764 60.6823C42.16 59.4999 39.1829 57.9037 37.8452 55.8936C37.4124 55.2367 37.2747 54.836 37.4321 54.6915C37.6026 54.547 37.9895 54.8031 38.5928 55.46C40.3633 57.4044 43.5174 58.889 48.0551 59.9137C52.3699 60.8859 56.8748 61.2275 61.5699 60.9385C66.4748 60.6363 71.4257 59.0926 76.4224 56.3074C81.2224 53.6273 83.8847 51.0917 84.4093 48.7006C84.9602 46.2176 84.7307 42.8675 83.7208 38.6502C82.5929 33.9338 80.7897 29.6903 78.311 25.9197C77.288 24.3563 76.888 23.4892 77.111 23.3184C77.3208 23.1476 77.9372 23.8045 78.9601 25.2891Z" fill="#0D131A"/>
<path d="M33.3803 34.3148C32.5147 35.9439 30.7639 37.8817 28.1278 40.1283C26.554 41.4552 23.9048 43.5573 20.1802 46.4344C16.7835 49.1408 14.1605 51.5253 12.3113 53.588C9.76705 56.4257 8.07524 59.2175 7.23589 61.9633C6.22605 65.2609 6.17359 68.9658 7.07851 73.0779C7.91786 76.9535 9.11131 79.3446 10.6589 80.2511C12.3244 81.2233 14.5671 81.6503 17.3868 81.5321C20.2982 81.4138 22.3114 80.7306 23.4261 79.4826C25.1442 77.5513 25.813 74.4245 25.4327 70.1022C25.0392 65.6879 23.7015 62.1669 21.4196 59.5394C20.5277 58.5015 20.1474 57.8709 20.2786 57.6475C20.4097 57.4242 20.9671 57.838 21.9507 58.8891C24.8228 61.9764 26.4229 65.7536 26.7507 70.2204C27.0524 74.4639 26.1671 77.7484 24.095 80.0738C22.8491 81.4795 20.6064 82.2678 17.3671 82.4386C14.2326 82.6094 11.7474 82.1561 9.91131 81.0788C8.04901 79.9884 6.68507 77.4134 5.81949 73.3538C4.9408 69.176 5.02604 65.3134 6.07523 61.7662C6.87523 59.0861 8.45557 56.3995 10.8162 53.7062C12.5343 51.7355 15.0195 49.4299 18.272 46.7892L26.3376 40.2465C29.2491 37.7372 31.4196 35.4315 32.8491 33.3295C32.9147 33.2375 33.0327 33.3492 33.2032 33.6645C33.3868 33.9929 33.4458 34.2097 33.3803 34.3148Z" fill="#0D131A"/>
<path d="M38.2 16.914C39.0131 16.6512 40.3836 16.914 42.3115 17.7022C44.2525 18.5036 45.8459 19.4824 47.0918 20.6385C48.0754 21.5582 48.4558 22.0771 48.2328 22.1954C48.023 22.3267 47.4197 22.0049 46.423 21.2297C45.1377 20.2575 43.6492 19.4364 41.9574 18.7664C40.3049 18.0964 39.1967 17.8599 38.6328 18.057C37.7147 18.3591 36.6524 20.6911 35.4459 25.0528C34.1737 29.6642 33.3475 34.4989 32.9672 39.557C32.8623 41.0152 32.6786 41.6853 32.4164 41.567C32.1409 41.4488 32.0295 40.7591 32.0819 39.4978C32.2524 35.1229 32.9082 30.5444 34.0491 25.7623C35.3475 20.3495 36.7311 17.4001 38.2 16.914Z" fill="#0D131A"/>
<path d="M65.1698 18.6087C66.3108 17.7417 68.0616 16.914 70.4223 16.1257C73.0846 15.2323 74.9338 15.0221 75.9699 15.4951C76.9928 15.9549 77.924 17.4986 78.7633 20.1262C79.5371 22.5698 79.9699 25.0266 80.0617 27.4965C80.0617 27.6147 79.8978 27.4899 79.5699 27.122C79.2289 26.7542 79.0584 26.5046 79.0584 26.3732C78.9797 24.3762 78.5207 22.2742 77.6814 20.067C76.8814 17.965 76.1404 16.7563 75.4584 16.441C74.8158 16.152 73.3469 16.3359 71.0518 16.9928C68.7305 17.6497 67.078 18.3526 66.0944 19.1014C66.0026 19.1802 65.7993 19.1408 65.4846 18.9832C65.1829 18.8124 65.078 18.6876 65.1698 18.6087Z" fill="#0D131A"/>
<path d="M65.8984 30.2749C66.5411 30.2617 67.4394 29.0334 68.5935 26.5897C69.7345 24.1855 70.1608 22.9111 69.8722 22.7666C69.2296 22.4382 67.6362 22.9177 65.0919 24.2052C62.5345 25.4927 61.2492 26.4846 61.2361 27.1809C61.223 27.6145 61.7869 28.2254 62.9279 29.0136C64.0952 29.8019 65.0853 30.2223 65.8984 30.2749ZM64.3247 23.6731C67.1181 22.1623 69.1116 21.5185 70.305 21.7419C70.7116 21.8207 70.8296 22.3594 70.6591 23.3578C70.5017 24.2775 70.1476 25.3548 69.5968 26.5897C68.2198 29.664 66.987 31.1748 65.8984 31.1223C65.0329 31.0697 63.8788 30.5705 62.4361 29.6246C60.9279 28.6392 60.1738 27.805 60.1738 27.1218C60.1738 26.3204 61.5574 25.1708 64.3247 23.6731Z" fill="#0D131A"/>
<path d="M60.2722 34.0193C60.3116 33.9142 60.1673 33.4281 59.8394 32.561C59.5116 31.6808 59.2755 31.2341 59.1312 31.221C59.0132 31.2078 58.7509 31.3852 58.3443 31.753C57.9378 32.1209 57.7345 32.3968 57.7345 32.5807C57.7476 32.7515 58.023 33.1982 58.5607 33.9208C59.0985 34.6171 59.4132 34.9652 59.505 34.9652C59.5837 34.9652 59.7214 34.8339 59.9181 34.5711L60.2722 34.0193ZM60.3116 31.9501C60.7181 32.9223 60.928 33.5858 60.9411 33.9405C60.9542 34.2295 60.7444 34.6237 60.3116 35.1229C59.8657 35.6353 59.5312 35.8389 59.3083 35.7338C59.046 35.6156 58.5935 35.1295 57.9509 34.2755C57.2558 33.369 56.9345 32.745 56.987 32.4034C57.0394 32.0486 57.3476 31.602 57.9116 31.0633C58.4755 30.5509 58.9017 30.3013 59.1903 30.3145C59.4919 30.3407 59.8657 30.886 60.3116 31.9501Z" fill="#0D131A"/>
<path d="M70.9341 33.8615C70.5276 33.8353 69.8587 34.6038 68.9276 36.1672C68.0227 37.7175 67.6227 38.6437 67.7276 38.9459C67.8325 39.2218 68.5735 39.5568 69.9505 39.9509C71.3407 40.345 72.1341 40.4501 72.3309 40.2662C72.6325 39.9772 72.5735 38.8408 72.1538 36.857C71.7341 34.8863 71.3276 33.8878 70.9341 33.8615ZM68.2587 35.5169C69.3997 33.5462 70.2981 32.5937 70.9538 32.6594C71.78 32.7383 72.4423 34.1046 72.9407 36.7584C73.426 39.3991 73.3866 40.8574 72.8227 41.1333C72.3374 41.3829 71.2686 41.2318 69.6161 40.6801C67.9899 40.1414 67.0981 39.6816 66.9407 39.3006C66.6915 38.7357 67.1308 37.4744 68.2587 35.5169Z" fill="#0D131A"/>
<path d="M43.2553 37.7831C44.7897 34.6694 46.4356 33.2112 48.193 33.4082C50.6717 33.6973 52.8029 35.7927 54.5865 39.6947C55.334 41.35 55.8258 42.9857 56.0619 44.6016C56.3111 46.2833 56.2258 47.6233 55.8062 48.6218C55.5832 49.1736 54.7439 49.5414 53.2881 49.7254C51.9504 49.883 50.3963 49.8699 48.6258 49.6859C46.8422 49.502 45.3209 49.1801 44.0618 48.7203C42.6717 48.2342 41.9176 47.6759 41.7995 47.0452C41.2094 44.0498 41.6946 40.9625 43.2553 37.7831ZM52.5012 38.059C51.1242 35.7205 49.6553 34.4658 48.0947 34.295C47.4783 34.2293 46.8094 34.5709 46.0881 35.3198C44.9996 36.4496 44.1209 38.0787 43.452 40.207C42.7438 42.5193 42.534 44.733 42.8225 46.8482C42.9274 47.6627 44.8881 48.2802 48.7045 48.7006C52.5209 49.1342 54.593 48.9699 54.9209 48.2079C55.2619 47.3803 55.2029 45.9351 54.7439 43.8725C54.2586 41.7179 53.5111 39.78 52.5012 38.059Z" fill="#0D131A"/>
<path d="M81.4788 36.4826C80.4952 34.039 79.5051 32.8172 78.5083 32.8172C77.6296 32.8172 77.0919 34.8995 76.8952 39.0642C76.6985 43.2026 76.9477 45.4754 77.6428 45.8827C78.1018 46.1454 78.9674 46.0009 80.2395 45.4491C81.5116 44.8974 82.2002 44.3784 82.3051 43.8923C82.8166 41.5669 82.5411 39.097 81.4788 36.4826ZM75.9706 38.7292C76.1936 34.1835 77.0395 31.9106 78.5083 31.9106C79.7805 31.9106 81.0133 33.2704 82.2067 35.9899C83.4526 38.854 83.8002 41.5275 83.2493 44.0106C83.0526 44.8514 82.0821 45.6002 80.3379 46.2571C78.646 46.9009 77.5706 47.0257 77.1116 46.6315C76.6788 46.2768 76.3575 45.3046 76.1477 43.715C75.9378 42.191 75.8788 40.529 75.9706 38.7292Z" fill="#0D131A"/>
<path d="M24.9405 41.646L28.3832 41.8628C29.7209 42.0993 30.4881 42.408 30.6848 42.789C31.0389 43.5116 30.3963 45.364 28.7569 48.3463C27.1176 51.3548 25.8651 52.8591 24.9995 52.8591C24.1733 52.8591 22.8225 52.4453 20.9471 51.6176C18.9667 50.7505 17.9766 50.041 17.9766 49.4893C17.9766 49.174 18.1208 48.701 18.4094 48.0704L19.3536 46.218C19.4192 46.1128 19.5962 46.0472 19.8848 46.0209C20.1864 46.0077 20.3044 46.0537 20.2389 46.1588C19.8848 46.8157 19.6028 47.4529 19.393 48.0704C19.2094 48.609 19.1176 48.9966 19.1176 49.2331C19.17 49.5878 20.0159 50.133 21.6553 50.8687C23.2553 51.5913 24.3635 51.9592 24.9799 51.9723C25.5569 51.7884 26.5012 50.4483 27.8127 47.9521C29.1242 45.456 29.6881 43.932 29.5045 43.3802C29.3996 43.1568 28.8356 42.9466 27.8127 42.7496L24.7635 42.5328C24.6323 42.5459 24.5995 42.4014 24.6651 42.0993C24.7307 41.8102 24.8225 41.6591 24.9405 41.646Z" fill="#0D131A"/>
<path d="M11.5437 60.3669C11.1372 60.564 10.6716 61.1092 10.147 62.0026C9.6224 62.8828 9.37978 63.4937 9.41912 63.8353C9.47158 64.19 10.1667 64.8403 11.5044 65.7863C12.8421 66.7322 13.7077 67.1789 14.1011 67.1263C14.4946 67.0738 15.1044 66.1673 15.9306 64.4068C16.7569 62.6463 17.0651 61.6544 16.8552 61.4311C16.6192 61.1946 15.7601 60.9187 14.2782 60.6034C12.77 60.2881 11.8585 60.2093 11.5437 60.3669ZM9.36011 61.4902C9.9765 60.4655 10.5601 59.8086 11.1109 59.5195L14.5142 59.6772C16.4028 60.0319 17.5044 60.4589 17.8192 60.9581C18.1077 61.4179 17.7798 62.7054 16.8355 64.8206C15.8913 66.9227 15.1175 68.0854 14.5142 68.3087C14.0552 68.4926 12.9732 67.9868 11.2683 66.7913C9.53716 65.5826 8.62568 64.6367 8.53387 63.9535C8.4683 63.3623 8.74371 62.5412 9.36011 61.4902Z" fill="#0D131A"/>
<path d="M74.1609 71.0483V71.068C74.1871 72.1585 74.7183 72.9533 75.7543 73.4525C76.6855 73.8992 77.315 73.9715 77.6429 73.6693C77.9839 73.354 78.1019 72.1585 77.997 70.0827C77.8921 67.9675 77.5839 66.7917 77.0724 66.5552C76.797 66.437 76.2396 67.0282 75.4002 68.3288C74.574 69.6294 74.1609 70.5359 74.1609 71.0483ZM74.7314 67.6588C75.7412 66.0428 76.5216 65.2414 77.0724 65.2546C77.9642 65.2677 78.5216 66.6931 78.7445 69.5309C78.9675 72.3161 78.7839 73.9255 78.1937 74.359C77.7085 74.7269 76.8232 74.6612 75.538 74.162C74.0691 73.5839 73.315 72.6183 73.2756 71.2651C73.2625 70.4506 73.7478 69.2484 74.7314 67.6588Z" fill="#0D131A"/>
<path d="M83.3671 48.1097C83.354 48.6221 83.2818 49.0425 83.1507 49.3709L82.7572 50.0212C82.1146 50.7832 80.5802 51.7423 78.1539 52.8984C75.649 54.094 73.4785 54.8757 71.6424 55.2435C68.2982 55.9267 63.1637 55.9858 56.2391 55.4209C49.3145 54.8691 44.9407 54.0414 43.1177 52.9378C42.8161 52.7408 42.5407 52.4189 42.2915 51.9722C42.0685 51.5912 41.9046 51.1708 41.7997 50.711C41.603 49.8833 41.5898 49.4169 41.7603 49.3118C41.9308 49.2067 42.1997 49.5877 42.5669 50.4548C42.7899 50.9672 43.0259 51.3613 43.2751 51.6372L44.062 52.2284C45.5308 53.0298 49.4587 53.7392 55.8456 54.3567C62.7572 55.0267 67.9637 55.007 71.4654 54.2976C73.0392 53.9691 74.908 53.332 77.072 52.386C79.0785 51.5058 80.5802 50.7044 81.5769 49.9818C81.9441 49.7059 82.213 49.4235 82.3835 49.1344C82.5671 48.8323 82.6851 48.4644 82.7376 48.0309C82.8294 47.2426 82.9605 46.8747 83.131 46.9273C83.3015 46.993 83.3802 47.3871 83.3671 48.1097Z" fill="#0D131A"/>
<path d="M53.5436 31.9302C54.0027 32.3506 54.4486 32.863 54.8814 33.4673C55.3404 34.0979 55.6683 34.6694 55.865 35.1818C56.1535 35.9175 56.1666 36.3313 55.9043 36.4233C55.6289 36.5021 55.3207 36.2131 54.9797 35.5562C54.4158 34.4395 53.7273 33.4279 52.9141 32.5214C52.1535 31.6412 51.8518 31.1288 52.0092 30.9843C52.1797 30.8397 52.6912 31.1551 53.5436 31.9302Z" fill="#0D131A"/>
<path d="M75.7151 32.0682C75.4659 32.7908 75.3085 33.566 75.2429 34.3936C75.1905 35.1162 75.0265 35.4709 74.7511 35.4578C74.4757 35.4578 74.3577 35.1031 74.397 34.3936C74.4364 33.5265 74.6593 32.6726 75.0659 31.8318C75.4331 31.0829 75.7019 30.7282 75.8724 30.7676C76.0298 30.8202 75.9774 31.2537 75.7151 32.0682Z" fill="#0D131A"/>
<path d="M67.0784 52.7209C66.7899 52.5763 66.5604 52.3924 66.3899 52.1691C66.2194 51.9589 66.1604 51.8078 66.2129 51.7158L66.8227 51.7355C67.203 51.8144 67.485 51.9392 67.6686 52.11C67.9047 52.3464 67.9506 52.5501 67.8063 52.7209C67.662 52.8917 67.4194 52.8917 67.0784 52.7209Z" fill="#0D131A"/>
<path d="M73.7865 51.7355C73.5111 52.077 73.2619 52.1953 73.039 52.0902C72.816 51.9851 72.8029 51.7683 72.9996 51.4399C73.1439 51.2034 73.3734 50.9932 73.6882 50.8092C73.9767 50.6253 74.1603 50.5662 74.239 50.6319C74.2915 50.6844 74.2783 50.8224 74.1997 51.0457L73.7865 51.7355Z" fill="#0D131A"/>
<path d="M50.1405 34.1768C50.2585 34.2162 50.3109 34.4067 50.2978 34.7483C50.2847 35.0899 50.2257 35.2279 50.1208 35.1622C49.4519 34.7418 48.8224 35.0636 48.2322 36.1278C47.6814 37.1 47.3011 38.4466 47.0913 40.1677C46.8683 41.9413 46.8945 43.5966 47.1699 45.1338C47.4978 46.8811 48.1077 48.1292 48.9995 48.878C49.1044 48.9568 49.0388 49.0751 48.8027 49.2327C48.5667 49.3773 48.3962 49.4101 48.2913 49.3313C47.2158 48.5299 46.4749 47.203 46.0683 45.3505C45.7142 43.682 45.6749 41.8953 45.9503 39.9903C46.2257 38.1116 46.7306 36.6139 47.465 35.4972C48.265 34.3016 49.1568 33.8615 50.1405 34.1768Z" fill="#0D131A"/>
<path d="M77.3079 32.9947C77.7669 32.64 78.298 32.791 78.9013 33.4479C79.5046 34.0917 80.0226 35.0507 80.4554 36.3251C81.5308 39.5176 81.5767 42.6575 80.5931 45.7449C80.5538 45.8631 80.403 45.9485 80.1407 46.0011C79.8784 46.0405 79.7603 46.0011 79.7866 45.8829C80.5866 43.3867 80.6128 40.5555 79.8653 37.3893C79.5636 36.1149 79.1898 35.1099 78.7439 34.3741C78.298 33.6253 77.8915 33.3494 77.5243 33.5465C77.4193 33.6122 77.3341 33.553 77.2685 33.3691C77.2029 33.1983 77.2161 33.0735 77.3079 32.9947Z" fill="#0D131A"/>
<path d="M75.8519 57.4703C75.7863 57.3652 75.924 57.2075 76.265 56.9973C76.5929 56.774 76.783 56.7149 76.8355 56.82C80.5601 62.8502 82.2191 69.8855 81.8126 77.9258C81.7732 78.6747 81.2027 79.4498 80.1011 80.2512C79.0519 81.0132 77.7535 81.6504 76.206 82.1628C72.4552 83.3977 69.6355 83.3518 67.7469 82.0248C66.501 81.1446 65.2092 79.463 63.8715 76.9799C62.5863 74.602 61.9305 72.7955 61.9043 71.5606C61.9043 71.4423 62.0879 71.311 62.4551 71.1665L62.9863 71.1073C63.0125 72.3291 63.6223 74.0568 64.8158 76.2902C66.0879 78.6681 67.3666 80.3104 68.6519 81.2169C70.2912 82.3599 72.7634 82.3927 76.0683 81.3154C77.406 80.8819 78.5339 80.3432 79.4519 79.6994C80.4093 79.0426 80.9011 78.4382 80.9273 77.8864C81.3077 70.3716 79.6158 63.5662 75.8519 57.4703Z" fill="#0D131A"/>
<path d="M64.8553 69.9642C61.4586 72.6312 57.4061 74.4377 52.6979 75.3836C48.3307 76.2507 44.429 76.2047 40.9929 75.2456C40.8749 75.2062 40.8552 75.0026 40.9339 74.6347C40.9995 74.28 41.0913 74.1158 41.2093 74.1421C44.5798 75.088 48.3504 75.1471 52.5209 74.3194C56.757 73.4786 60.5996 71.8824 64.0488 69.5307C65.3603 68.6373 66.0881 68.2826 66.2324 68.4665C66.3636 68.6373 65.9045 69.1366 64.8553 69.9642Z" fill="#0D131A"/>
<path d="M55.6684 73.9448C55.7339 73.8397 56.0356 73.7478 56.5733 73.6689L57.2815 73.7281C56.2585 75.4097 54.993 76.8746 53.4848 78.1227C51.7536 79.5547 50.0552 80.3758 48.3897 80.586L42.488 80.4086C40.9404 80.0276 40.029 79.4496 39.7535 78.6744C39.7142 78.5562 39.8126 78.3591 40.0486 78.0832C40.2716 77.7942 40.4027 77.7088 40.4421 77.8271C40.7044 78.5628 41.5109 79.1146 42.8618 79.4824C44.3306 79.8897 46.1339 79.9619 48.2716 79.6992C49.5175 79.5415 50.8356 78.9175 52.2257 77.8271C53.6028 76.7498 54.7503 75.4557 55.6684 73.9448Z" fill="#0D131A"/>
<path d="M9.89135 9.4058C9.99627 9.32697 10.252 9.32697 10.6586 9.4058C11.2881 9.52404 11.8389 9.8065 12.311 10.2532C12.4159 10.332 12.4225 10.4568 12.3307 10.6276C12.252 10.7853 12.1602 10.8247 12.0553 10.7459C11.7799 10.5094 11.511 10.3517 11.2487 10.2729L10.875 10.2532L10.9536 10.8838L11.0717 12.0662C11.111 13.8529 10.5274 16.1915 9.32085 19.0818C8.37659 21.3809 7.16347 23.7588 5.68149 26.2156C1.01262 33.98 -0.0168914 40.6803 2.59296 46.3164C3.57657 48.4448 4.98641 50.1855 6.82248 51.5387C8.44872 52.7211 10.0094 53.3649 11.5045 53.47C11.6225 53.4831 11.6028 53.6342 11.4455 53.9232C11.3012 54.2254 11.1635 54.3699 11.0323 54.3568C9.28807 54.2385 7.5438 53.5488 5.79953 52.2876C3.85854 50.8687 2.38312 49.0294 1.37328 46.7697C-1.24968 40.9102 -0.115252 33.9275 4.77657 25.8215C7.08478 21.9852 8.652 18.8322 9.47823 16.3623C10.3569 13.7478 10.5012 11.6261 9.91102 9.997C9.79299 9.69483 9.78643 9.49776 9.89135 9.4058Z" fill="#0D131A"/>
<path d="M20.0814 8.71609C20.1732 8.80806 20.1732 8.95257 20.0814 9.14964C19.9896 9.35984 19.8978 9.41896 19.806 9.327C18.8224 8.30225 17.5437 7.48114 15.9699 6.86366C14.4879 6.29874 13.1568 6.04912 11.9765 6.11481C11.4256 6.15422 11.1306 6.22648 11.0912 6.33158C11.0519 6.42355 11.183 6.70601 11.4847 7.17897C12.9142 9.43867 12.9535 12.7757 11.6027 17.19C10.8683 19.5548 9.72071 22.4976 8.16005 26.0186C5.85184 32.1014 5.66823 37.5273 7.60922 42.2963C8.40923 44.267 9.51743 45.9355 10.9338 47.3018C12.2453 48.5762 13.6617 49.4367 15.183 49.8834C15.2879 49.9096 15.2093 50.041 14.947 50.2775C14.6847 50.5008 14.4945 50.5994 14.3765 50.5731C10.3502 49.3907 7.58955 46.3821 6.09446 41.5474C4.5338 36.5419 4.91413 31.208 7.23545 25.5456L8.96661 21.624C9.79284 19.7059 10.4158 18.0308 10.8355 16.5988C12.1207 12.2896 11.9699 9.11679 10.383 7.08044C9.8453 6.38413 9.59612 5.93745 9.63546 5.74038C9.67481 5.51704 10.0683 5.35939 10.8158 5.26742C12.2191 5.08349 13.7929 5.30027 15.5371 5.91774C17.3863 6.57463 18.9011 7.50742 20.0814 8.71609Z" fill="#0D131A"/>
<path d="M18.7048 4.91238L19.4326 5.50358C19.5113 5.59554 19.4917 5.78604 19.3736 6.07507C19.2556 6.35097 19.1572 6.44293 19.0785 6.35097L18.6654 5.8583C18.4294 5.62182 18.2523 5.52985 18.1343 5.5824C18.0294 5.63496 17.99 5.80575 18.0162 6.09478L18.1933 7.21806C18.2195 7.32316 18.1146 7.37571 17.8785 7.37571C17.6425 7.36258 17.5179 7.29689 17.5048 7.17865L17.308 5.95683C17.2556 5.2868 17.3605 4.84669 17.6228 4.63648C17.8457 4.46569 18.2064 4.55766 18.7048 4.91238Z" fill="#0D131A"/>
<path d="M48.8821 10.4698C51.7018 12.7426 53.1838 15.4884 53.328 18.7072C53.3411 18.8386 53.1706 18.9371 52.8165 19.0028C52.4624 19.0816 52.2854 19.0553 52.2854 18.924C52.1542 15.9811 50.8296 13.4389 48.3116 11.2975C45.2821 8.72247 41.046 7.33643 35.6034 7.13936C30.9476 6.96857 27.6164 6.44963 25.6099 5.58254C23.9836 4.88623 22.8099 3.7104 22.0885 2.05504C21.9312 1.70032 21.8 1.50982 21.6951 1.48354C21.5771 1.44413 21.3869 1.57551 21.1246 1.87768C20.2459 2.84987 19.7279 4.03885 19.5705 5.44459C19.4131 6.88975 19.7148 8.01303 20.4754 8.81443C22.0099 10.391 23.223 12.25 24.1148 14.3914C24.6656 15.7183 25.3345 17.9321 26.1213 21.0326C27.0787 24.8031 28.1345 27.608 29.2886 29.4473C30.2197 30.9319 31.5837 32.272 33.3804 33.4675C33.4591 33.5069 33.4066 33.6974 33.223 34.039C33.0525 34.3674 32.9148 34.4988 32.8099 34.4331C30.5017 32.9091 28.8427 31.2932 27.8328 29.5853C26.9017 28.0088 26.0033 25.4469 25.1377 21.8997C24.2066 18.0503 23.5115 15.5476 23.0525 14.3914C22.3443 12.5653 21.2754 10.9099 19.8459 9.42534C18.823 8.36118 18.4951 6.79121 18.8623 4.71544C19.2164 2.75791 19.9312 1.35874 21.0066 0.517916C21.4918 0.13692 21.8328 -0.0338709 22.0295 0.00554251C22.2262 0.0449559 22.4164 0.32085 22.6 0.833224C23.3869 2.88272 24.5148 4.23591 25.9836 4.8928C27.6361 5.61538 30.8492 6.06863 35.623 6.25256C41.2362 6.44963 45.6559 7.85537 48.8821 10.4698Z" fill="#0D131A"/>
<path d="M54.6259 11.4549C57.1308 13.6095 58.2128 15.9415 57.8718 18.4508C57.8587 18.569 57.662 18.6216 57.2816 18.6084C56.9013 18.5953 56.7177 18.5296 56.7308 18.4114C57.0193 16.2568 56.1669 14.2335 54.1734 12.3417C51.8783 10.174 48.6849 8.93901 44.593 8.63684C44.4619 8.6237 44.0816 8.46605 43.4521 8.16388C42.8094 7.84857 42.5471 7.69092 42.6652 7.69092C47.7275 7.69092 51.7144 8.94558 54.6259 11.4549Z" fill="#0D131A"/>
<path d="M23.5631 62.239C24.2713 59.467 25.2615 57.3912 26.5336 56.0117L41.1108 60.2684C42.3829 65.1293 42.5075 69.7604 41.4845 74.1616C40.8681 76.776 39.9042 79.108 38.5927 81.1575C37.8845 82.2742 36.4419 83.0099 34.2648 83.3646C31.9697 83.7456 29.7599 83.5157 27.6353 82.6749C26.0877 82.0705 24.8746 80.5925 23.9959 78.2409C23.1828 76.0994 22.7435 73.531 22.6779 70.5356C22.6123 67.6058 22.9074 64.8403 23.5631 62.239Z" fill="#7CBEB3"/>
<path d="M26.691 67.6584C26.7697 66.857 27.7336 65.7731 29.5828 64.4068C31.432 63.0405 32.6058 62.5478 33.1041 62.9288C33.6156 63.3098 33.714 65.3856 33.3992 69.1561C33.0844 72.9267 32.6058 74.8382 31.9631 74.8908C31.5828 74.9171 30.5992 73.866 29.0123 71.7377C27.4123 69.5831 26.6385 68.2233 26.691 67.6584Z" fill="#006359"/>
<path d="M23.1894 63.0669C23.255 68.703 24.5206 73.3998 26.9861 77.1572C29.3468 80.7963 32.2976 82.7999 35.8386 83.1677C34.396 83.5356 32.8354 83.6538 31.1567 83.5224C27.7993 83.2597 25.537 81.8671 24.3697 79.3446C23.2025 76.8353 22.6583 73.3669 22.7369 68.9395L23.1894 63.0669Z" fill="#68A198"/>
<path d="M25.6877 58.1796C23.9828 61.1093 23.209 65.3068 23.3664 70.7721C23.5368 76.4608 24.7303 80.1197 26.9467 81.7488C28.4549 82.8523 30.4746 83.2925 33.0057 83.0691C35.4451 82.8458 37.0582 82.1757 37.8451 81.059C39.6287 78.5234 40.7959 75.4623 41.3468 71.8757C41.8451 68.6438 41.7796 65.5696 41.15 62.653C40.8353 61.1947 40.7959 60.413 41.032 60.3079C41.2681 60.2028 41.5828 60.8597 41.9763 62.2786C42.7894 65.2346 42.9533 68.4336 42.4681 71.8757C41.9435 75.62 40.7435 78.8322 38.8681 81.5123C37.8976 82.8918 35.891 83.6997 32.8484 83.9362C29.8713 84.1596 27.6287 83.7194 26.1205 82.6159C25.0319 81.8145 24.1336 80.3956 23.4254 78.3592C22.7434 76.4148 22.3303 74.1814 22.186 71.6589C21.8319 65.9309 22.7368 61.2998 24.9008 57.7657C25.6614 56.5176 26.186 55.9199 26.4746 55.9724C26.7762 56.0118 26.5139 56.7475 25.6877 58.1796Z" fill="#0D131A"/>
<path d="M27.164 67.4614C27.1378 67.9212 27.8132 69.2087 29.1903 71.3239C30.5936 73.4785 31.4919 74.5295 31.8854 74.477C32.3182 74.4113 32.6723 72.6311 32.9477 69.1365C33.2231 65.6287 33.1575 63.7303 32.7509 63.4412C32.3706 63.1785 31.3477 63.6711 29.6821 64.9192C28.0296 66.1673 27.1903 67.0147 27.164 67.4614ZM26.2591 67.2643C26.2985 66.3053 27.3935 65.0966 29.5444 63.6383C31.6559 62.2194 32.9214 61.707 33.3411 62.1012C34.0362 62.7712 34.2329 65.0506 33.9313 68.9394C33.6165 72.8282 33.0591 75.0025 32.2591 75.4623C31.7083 75.7908 30.5608 74.7529 28.8165 72.3487C27.0722 69.9576 26.2198 68.2628 26.2591 67.2643Z" fill="#0D131A"/>
<path d="M11.4263 81.197C11.3607 81 11.6099 80.6649 12.1738 80.192C12.7509 79.719 13.1836 79.5022 13.4722 79.5417C13.9968 79.6073 14.3574 80.1788 14.5541 81.2561C14.7378 82.2546 14.7509 82.8261 14.5935 82.9706C14.4099 83.1414 13.8984 83.0363 13.0591 82.6553C12.1541 82.248 11.6099 81.7619 11.4263 81.197Z" fill="white"/>
<path d="M17.2882 82.6753C16.3702 82.2548 15.9111 81.8344 15.9111 81.414C15.9111 81.0462 16.18 80.5995 16.7177 80.074C17.2423 79.5485 17.6423 79.3514 17.9177 79.4828C18.3505 79.693 18.7046 80.3105 18.98 81.3352C19.2423 82.3205 19.2554 82.892 19.0193 83.0497C18.7702 83.2205 18.1931 83.0957 17.2882 82.6753Z" fill="white"/>
<path d="M20.3769 81.473C20.2851 80.7898 20.5343 80.1592 21.1245 79.5812L22.0491 78.9111C22.5343 79.1213 22.9147 79.752 23.1901 80.803C23.4392 81.7489 23.4983 82.3007 23.3671 82.4583L21.813 82.4189C20.895 82.1956 20.4163 81.8803 20.3769 81.473Z" fill="white"/>
<path d="M28.1081 83.1283C28.0818 82.7867 28.1999 82.4189 28.4622 82.0247C28.7769 81.5518 29.1769 81.3219 29.6622 81.335C30.1474 81.3481 30.5212 81.5321 30.7835 81.8868C30.9933 82.2152 31.0851 82.6159 31.0589 83.0889C31.0327 83.5225 30.8819 84.0085 30.6064 84.5472C30.3441 85.0858 30.1343 85.3552 29.9769 85.3552C29.8064 85.3552 29.4654 85.0727 28.954 84.5078C28.4163 83.9166 28.1343 83.4568 28.1081 83.1283Z" fill="white"/>
<path d="M32.0229 83.5619C31.9836 82.9182 32.1606 82.3861 32.5541 81.9657C32.8688 81.611 33.1836 81.4336 33.4984 81.4336C33.7344 81.4336 34.0098 81.611 34.3246 81.9657C34.6393 82.3335 34.8361 82.7014 34.9148 83.0693C34.9672 83.3057 34.9082 83.713 34.7377 84.2911C34.5672 84.9085 34.3639 85.2764 34.1279 85.3946C33.8918 85.526 33.4984 85.3815 32.9475 84.9611C32.3574 84.5275 32.0492 84.0612 32.0229 83.5619Z" fill="white"/>
<path d="M35.8983 83.4439C35.5311 83.0498 35.5639 82.452 35.9967 81.6506C36.4295 80.8492 36.8557 80.5076 37.2754 80.6258C37.6688 80.7572 38.0492 81.309 38.4164 82.2812C38.7574 83.214 38.8426 83.8117 38.6721 84.0745C38.5148 84.311 38.1082 84.3635 37.4525 84.2322C36.7836 84.0876 36.2656 83.8249 35.8983 83.4439Z" fill="white"/>
<path d="M42.5868 79.8572C42.5343 79.5813 42.7901 79.2397 43.354 78.8325C43.9048 78.4383 44.3048 78.2938 44.554 78.3989C44.9868 78.596 45.2688 79.1478 45.3999 80.0543C45.5311 80.9345 45.4786 81.4272 45.2425 81.5323C45.0065 81.6374 44.5409 81.5126 43.8458 81.1578C43.0983 80.7637 42.6786 80.3302 42.5868 79.8572Z" fill="white"/>
<path d="M47.9175 81.1972C47.1175 80.9213 46.6519 80.606 46.5208 80.2513C46.4028 79.9491 46.606 79.5156 47.1306 78.9506C47.6552 78.3988 48.0356 78.1755 48.2716 78.2806C48.7306 78.4777 49.052 78.9835 49.2356 79.798C49.3929 80.5075 49.4061 80.9936 49.2749 81.2563L47.9175 81.1972Z" fill="white"/>
<path d="M50.0615 79.5612C49.9042 79.2459 50.1271 78.7927 50.7304 78.2015C51.3206 77.6234 51.7468 77.3869 52.0091 77.492C52.3107 77.6234 52.6058 78.1029 52.8943 78.9306C53.1697 79.7452 53.2419 80.2444 53.1107 80.4283L51.6156 80.3889C50.7501 80.1787 50.232 79.9028 50.0615 79.5612Z" fill="white"/>
<path d="M72.3701 82.5964C72.1865 82.4124 72.3307 81.9395 72.8029 81.1775C73.275 80.4024 73.675 80.0214 74.0029 80.0345C74.4357 80.0608 74.9209 80.5337 75.4586 81.4534C75.9701 82.3205 76.1668 82.8329 76.0488 82.9905C75.9045 83.1744 75.3471 83.2336 74.3766 83.1679C73.3668 83.1022 72.698 82.9117 72.3701 82.5964Z" fill="white"/>
<path d="M76.659 81.5124C76.4754 81.3153 76.5934 80.8227 77.0131 80.0344C77.4197 79.2461 77.7738 78.8651 78.0754 78.8914C78.3639 78.9177 78.7705 79.3775 79.2951 80.2709C79.7935 81.1511 79.9967 81.6898 79.9049 81.8868C79.7869 82.0839 79.3082 82.1562 78.4689 82.1036C77.5771 82.0511 76.9738 81.854 76.659 81.5124Z" fill="white"/>
<path d="M79.9441 79.6996C79.7343 79.4369 79.7999 78.9376 80.1408 78.2019C80.4687 77.4925 80.731 77.1509 80.9277 77.1772C81.2687 77.2166 81.6884 77.6501 82.1868 78.4778C82.672 79.2924 82.8556 79.8047 82.7376 80.015C82.6458 80.2383 82.2327 80.3237 81.4982 80.2711C80.7245 80.2186 80.2064 80.0281 79.9441 79.6996Z" fill="white"/>
<path d="M12.272 80.0737L13.1375 81.1576C13.7146 81.959 14.0359 82.583 14.1015 83.0297L12.7244 82.3203C11.8195 81.8079 11.3933 81.4401 11.4457 81.2167C11.4982 80.9934 11.6556 80.7372 11.9179 80.4482L12.272 80.0737Z" fill="#DBDCDC"/>
<path d="M16.6983 80.1528L17.4459 81.079C17.9705 81.8148 18.318 82.4782 18.4885 83.0694C16.8754 82.5045 16.0491 81.9461 16.0098 81.3944C15.9836 81.0528 16.0885 80.744 16.3245 80.4681L16.6983 80.1528Z" fill="#DBDCDC"/>
<path d="M22.8746 82.596C22.0353 82.4121 21.432 82.2282 21.0648 82.0443C20.6451 81.8472 20.409 81.6041 20.3566 81.3151C20.3041 81.0655 20.3566 80.7765 20.514 80.448L20.7697 80.0342C21.1238 80.205 21.5566 80.6254 22.0681 81.2954C22.5009 81.8735 22.7697 82.307 22.8746 82.596Z" fill="#DBDCDC"/>
<path d="M28.8951 81.749L29.0918 82.9511C29.2623 83.8576 29.4721 84.5671 29.7213 85.0794L28.9737 84.4291C28.4885 83.8905 28.259 83.3387 28.2852 82.7737C28.3115 82.3796 28.4098 82.0906 28.5803 81.9067C28.7115 81.7621 28.8164 81.7096 28.8951 81.749Z" fill="#DBDCDC"/>
<path d="M32.4358 82.3794L33.1833 83.6012L34.167 85.4142C33.7997 85.296 33.4325 85.1252 33.0653 84.9018C32.3309 84.4552 31.9899 83.9756 32.0424 83.4633C32.0948 82.964 32.1735 82.6356 32.2784 82.4779L32.4358 82.3794Z" fill="#DBDCDC"/>
<path d="M35.9964 81.6699L36.921 82.5567C37.5767 83.2268 37.9767 83.7851 38.121 84.2318L36.9013 83.8377C36.0882 83.5224 35.6947 83.2136 35.721 82.9114L35.8783 82.0246L35.9964 81.6699Z" fill="#DBDCDC"/>
<path d="M43.2362 78.9702C43.3542 79.049 43.6034 79.3446 43.9837 79.857C44.4559 80.5008 44.7182 81.0197 44.7706 81.4138L43.3542 80.7438C42.987 80.5205 42.7969 80.238 42.7837 79.8964C42.7706 79.6468 42.8428 79.4169 43.0001 79.2067L43.2362 78.9702Z" fill="#DBDCDC"/>
<path d="M46.9147 79.0884L47.5639 79.5416C48.0622 80.0015 48.495 80.6058 48.8622 81.3546L47.7999 81.059C47.0786 80.7963 46.6786 80.4941 46.5999 80.1525C46.5212 79.811 46.5475 79.5351 46.6786 79.3249L46.9147 79.0884Z" fill="#DBDCDC"/>
<path d="M50.6128 78.3003L51.4194 78.8915C51.9965 79.4039 52.3899 79.9359 52.5997 80.4877L51.4784 80.3301C50.6915 80.133 50.226 79.8374 50.0817 79.4433C50.003 79.2594 50.0358 79.0294 50.1801 78.7536C50.3112 78.4908 50.4555 78.3397 50.6128 78.3003Z" fill="#DBDCDC"/>
<path d="M72.8814 81.0791C73.983 81.6046 74.8683 82.2615 75.5371 83.0498L74.0617 83.0695C73.0781 83.0169 72.5666 82.8199 72.5273 82.4783C72.4879 82.1367 72.5339 81.8017 72.665 81.4732L72.8814 81.0791Z" fill="#DBDCDC"/>
<path d="M76.9935 80.2314C77.2164 80.2971 77.5902 80.4942 78.1148 80.8226C78.823 81.2562 79.2623 81.67 79.4328 82.0642L78.0558 82.005C77.1246 81.8999 76.6525 81.6963 76.6394 81.3941C76.6131 81.1051 76.6656 80.8226 76.7968 80.5467L76.9935 80.2314Z" fill="#DBDCDC"/>
<path d="M80.1013 78.3003L80.9669 78.8324C81.6095 79.2791 82.0554 79.752 82.3046 80.2513L81.2817 80.1724C80.5735 80.0673 80.1341 79.89 79.9636 79.6404C79.7931 79.3907 79.7669 79.0886 79.8849 78.7338L80.1013 78.3003Z" fill="#DBDCDC"/>
<path d="M71.9969 82.7147C71.892 82.3337 72.1018 81.7228 72.6264 80.882C73.151 80.028 73.6035 79.5944 73.9838 79.5813C74.3642 79.5682 74.8953 80.0674 75.5773 81.079C76.2461 82.0644 76.5347 82.7344 76.4429 83.0891C76.3642 83.4044 75.6297 83.5029 74.2396 83.3847C72.8494 83.2665 72.1019 83.0431 71.9969 82.7147ZM73.2756 81.1776C72.9478 81.7031 72.8166 82.0841 72.8822 82.3205C73.0133 82.5045 73.4789 82.6556 74.2789 82.7738C75.0527 82.892 75.4724 82.8855 75.5379 82.7541C75.6035 82.6096 75.4265 82.1892 75.0068 81.4929C74.5609 80.7834 74.2133 80.4221 73.9642 80.409C73.8199 80.3959 73.5904 80.652 73.2756 81.1776Z" fill="#0D131A"/>
<path d="M79.4916 81.729C79.5703 81.6108 79.3998 81.1904 78.9801 80.4678C78.5736 79.7452 78.2654 79.3642 78.0555 79.3248C77.8982 79.3117 77.6752 79.5876 77.3867 80.1525C77.085 80.7174 76.9604 81.1116 77.0129 81.3349C77.0522 81.532 77.4654 81.6765 78.2523 81.7685L79.4916 81.729ZM78.1539 78.438C78.5736 78.4906 79.0719 79.0752 79.649 80.1919C80.1998 81.2561 80.4162 81.913 80.2982 82.1626C80.1801 82.4253 79.5572 82.5042 78.4293 82.3991C77.2752 82.2808 76.5801 82.0575 76.344 81.729C76.1342 81.44 76.2719 80.816 76.7572 79.8569C77.2424 78.8584 77.708 78.3855 78.1539 78.438Z" fill="#0D131A"/>
<path d="M80.3969 78.4187C80.2002 78.8654 80.1608 79.2332 80.2789 79.5223C80.3313 79.6799 80.6789 79.8047 81.3215 79.8967L82.3641 79.8376C82.4428 79.7062 82.3051 79.3252 81.951 78.6946C81.5969 78.0246 81.2887 77.6961 81.0264 77.7092C80.8035 77.7355 80.5936 77.972 80.3969 78.4187ZM79.9641 77.926C80.3707 77.1772 80.7182 76.8027 81.0067 76.8027C81.492 76.8027 82.0035 77.348 82.5412 78.4384C83.0658 79.4894 83.2494 80.1463 83.092 80.4091L81.3412 80.4682C80.2657 80.3368 79.6821 80.1529 79.5903 79.9164C79.3936 79.404 79.5182 78.7406 79.9641 77.926Z" fill="#0D131A"/>
<path d="M34.1272 82.2414C33.9042 81.9787 33.6878 81.8604 33.478 81.8867C33.1763 81.8998 32.9075 82.0903 32.6714 82.4582C32.4354 82.8129 32.337 83.1545 32.3763 83.4829C32.4157 83.7851 32.6714 84.1267 33.1436 84.5077C33.6026 84.8624 33.9108 85.0069 34.0682 84.9412C34.1731 84.9018 34.2845 84.7113 34.4026 84.3697C34.56 83.9756 34.6124 83.6077 34.56 83.2662C34.5206 82.8589 34.3763 82.5173 34.1272 82.2414ZM32.0813 81.9852C32.5272 81.3283 33.0124 81.0196 33.537 81.059C33.9173 81.0853 34.2583 81.2824 34.56 81.6502C34.8616 82.0181 35.0518 82.4713 35.1305 83.01C35.2223 83.5355 35.1829 84.107 35.0124 84.7245C34.8419 85.3288 34.6321 85.6769 34.3829 85.7689C34.0682 85.8871 33.5632 85.7164 32.8681 85.2565C32.1206 84.7442 31.6944 84.1858 31.5895 83.5815C31.5108 83.1216 31.6747 82.5896 32.0813 81.9852Z" fill="#0D131A"/>
<path d="M30.3702 82.2024C30.1997 81.9659 30.0095 81.8345 29.7997 81.8082C29.5505 81.782 29.2882 81.8871 29.0128 82.1235C28.7243 82.36 28.58 82.6162 28.58 82.8921C28.5931 83.2337 28.7833 83.641 29.1505 84.1139C29.4784 84.5606 29.721 84.784 29.8784 84.784C30.0227 84.7708 30.18 84.5803 30.3505 84.2125C30.5341 83.8446 30.6325 83.4767 30.6456 83.1089C30.6587 82.7673 30.5669 82.4651 30.3702 82.2024ZM28.344 81.5521C28.8292 81.1185 29.3341 80.9346 29.8587 81.0003C30.2915 81.0528 30.6653 81.2893 30.98 81.7097C31.2817 82.1301 31.4194 82.5965 31.3932 83.1089C31.38 83.5293 31.2161 84.0679 30.9013 84.7248C30.5604 85.408 30.2653 85.7627 30.0161 85.789C29.7276 85.8284 29.2751 85.4934 28.6587 84.784C28.003 84.0482 27.662 83.4242 27.6358 82.9118C27.6095 82.4257 27.8456 81.9725 28.344 81.5521Z" fill="#0D131A"/>
<path d="M37.9436 81.8078C37.642 81.3874 37.3666 81.1772 37.1174 81.1772C36.8682 81.1509 36.619 81.3348 36.3698 81.729C36.1075 82.1362 36.0092 82.5172 36.0747 82.872C36.1403 83.1873 36.5075 83.4632 37.1764 83.6996C37.819 83.9098 38.1928 83.969 38.2977 83.877C38.3895 83.7982 38.4092 83.5223 38.3567 83.0493C38.3043 82.5369 38.1666 82.1231 37.9436 81.8078ZM37.2551 80.3101C37.8977 80.4021 38.4026 81.0786 38.7698 82.3399C39.1108 83.5223 39.1764 84.2317 38.9666 84.4682L37.1174 84.35C36.0157 84.0478 35.419 83.6537 35.3272 83.1676C35.2223 82.6289 35.3731 82.0114 35.7797 81.3151C36.2256 80.5663 36.7174 80.2313 37.2551 80.3101Z" fill="#0D131A"/>
<path d="M23.5434 80.6454C23.8713 81.9066 23.9041 82.6161 23.6418 82.7737C23.3008 82.9708 22.632 82.9314 21.6352 82.6555C20.5992 82.3664 20.0221 82.0183 19.9041 81.611C19.7467 81.1249 19.9303 80.5009 20.4549 79.7389C20.9926 78.9506 21.5303 78.5762 22.068 78.6156C22.6975 78.655 23.1893 79.3316 23.5434 80.6454ZM20.7303 81.2957C20.7697 81.5716 21.1303 81.8212 21.8123 82.0446C22.468 82.2548 22.868 82.2942 23.0123 82.1628C23.1172 82.0708 23.0582 81.6307 22.8352 80.8425C22.5992 80.0016 22.3238 79.555 22.009 79.5024C21.7467 79.463 21.4582 79.6404 21.1434 80.0345C20.7893 80.4549 20.6516 80.8753 20.7303 81.2957Z" fill="#0D131A"/>
<path d="M16.3827 81.4137C16.3827 81.7158 16.7434 82.0311 17.4647 82.3596C18.1729 82.6749 18.5794 82.7603 18.6844 82.6158C18.8024 82.4713 18.7696 82.0443 18.586 81.3348C18.3893 80.5728 18.1335 80.159 17.8188 80.0933C17.5171 80.0276 17.2024 80.1656 16.8745 80.5072C16.5729 80.8225 16.4089 81.1115 16.3827 81.3743V81.4137ZM16.363 79.8568C16.927 79.3313 17.4253 79.108 17.8581 79.1868C18.5139 79.305 18.986 79.9948 19.2745 81.256C19.5499 82.4516 19.5565 83.161 19.2942 83.3843C19.045 83.6208 18.3499 83.4894 17.2089 82.9902C16.0155 82.491 15.445 81.926 15.4975 81.2954C15.5368 80.8487 15.8253 80.3692 16.363 79.8568Z" fill="#0D131A"/>
<path d="M50.4555 79.2855C50.4948 79.5483 50.8751 79.7979 51.5965 80.0344C52.2915 80.2577 52.685 80.3102 52.7768 80.192C52.8686 80.0738 52.8096 79.6665 52.5997 78.9702C52.3768 78.2345 52.1342 77.8535 51.8719 77.8272C51.6489 77.8009 51.3473 77.9717 50.9669 78.3396C50.5866 78.7206 50.4161 79.0359 50.4555 79.2855ZM50.4751 77.9652C51.1571 77.3083 51.6948 77.0455 52.0883 77.1769C52.5866 77.3608 52.9932 77.9849 53.3079 79.049C53.6096 80.0606 53.662 80.6584 53.4653 80.8423C53.2686 81.0131 52.626 80.954 51.5374 80.665C50.4227 80.3628 49.7997 80.0278 49.6686 79.6599C49.5112 79.2001 49.7801 78.6352 50.4751 77.9652Z" fill="#0D131A"/>
<path d="M47.9574 80.8619C48.5345 81.059 48.8689 81.1115 48.9607 81.0196C49.0525 80.9276 49.0328 80.5532 48.9017 79.8963C48.7574 79.2 48.5542 78.819 48.2919 78.7533C48.0296 78.6876 47.7214 78.8321 47.3673 79.1868C47.0132 79.5547 46.8689 79.8766 46.9345 80.1525C47.0132 80.4284 47.3541 80.6648 47.9574 80.8619ZM48.4492 78.0241C48.882 78.1292 49.2427 78.7007 49.5312 79.7386C49.7935 80.7502 49.8197 81.4137 49.6099 81.729C49.4787 81.9261 48.8951 81.8407 47.8591 81.4728C46.7837 81.0918 46.2066 80.6911 46.1279 80.2707C46.0361 79.8503 46.2853 79.3445 46.8755 78.7533C47.4787 78.149 48.0033 77.9059 48.4492 78.0241Z" fill="#0D131A"/>
<path d="M43.9828 80.8227C44.5599 81.138 44.9074 81.2562 45.0255 81.1774C45.1304 81.1117 45.1435 80.7307 45.0648 80.0344C44.973 79.2987 44.7894 78.8849 44.514 78.7929C44.2517 78.7009 43.9369 78.7929 43.5697 79.0688C43.2156 79.3315 43.0451 79.5943 43.0582 79.8571C43.0713 80.1724 43.3795 80.4942 43.9828 80.8227ZM44.7304 78.0637C45.2812 78.182 45.6091 78.8323 45.714 80.0147C45.8058 81.1314 45.7402 81.7686 45.5173 81.9263C45.2681 82.0839 44.6517 81.9 43.6681 81.3745C42.6713 80.8227 42.1533 80.3432 42.114 79.9359C42.0746 79.5549 42.3566 79.1213 42.9599 78.6352C43.6025 78.136 44.1927 77.9455 44.7304 78.0637Z" fill="#0D131A"/>
<path d="M12.9796 82.064C13.6747 82.4187 14.0747 82.5304 14.1796 82.399C14.2977 82.2676 14.278 81.8538 14.1206 81.1575C13.9501 80.4349 13.7469 80.0408 13.5108 79.9751C13.2354 79.8831 12.901 79.9882 12.5075 80.2904C12.1141 80.5926 11.9173 80.8882 11.9173 81.1772C11.9305 81.4005 12.2846 81.6961 12.9796 82.064ZM13.6878 79.0883C14.2518 79.2065 14.6518 79.8963 14.8878 81.1575C15.1108 82.3662 15.1042 83.0428 14.8682 83.1873C14.4616 83.4632 13.7272 83.3187 12.6649 82.7537C11.6157 82.2019 11.0714 81.7093 11.0321 81.2757C10.9796 80.7765 11.2878 80.2576 11.9567 79.7189C12.6124 79.1934 13.1895 78.9832 13.6878 79.0883Z" fill="#0D131A"/>
</svg>
