<svg width="50" height="50" viewBox="0 0 50 50" fill="none" xmlns="http://www.w3.org/2000/svg">
<path d="M4.16683 24.9997C4.16683 27.7355 4.7057 30.4446 5.75267 32.9722C6.79964 35.4999 8.33422 37.7965 10.2688 39.7311C12.2033 41.6656 14.5 43.2002 17.0276 44.2472C19.5552 45.2941 22.2643 45.833 25.0002 45.833C27.736 45.833 30.4451 45.2941 32.9727 44.2472C35.5004 43.2002 37.797 41.6656 39.7316 39.7311C41.6661 37.7965 43.2007 35.4999 44.2477 32.9722C45.2946 30.4446 45.8335 27.7355 45.8335 24.9997L25.0002 24.9997H4.16683Z" fill="black" fill-opacity="0.2"/>
<path d="M45.8333 24.9998C45.8333 22.264 45.2944 19.5549 44.2475 17.0273C43.2005 14.4996 41.6659 12.203 39.7314 10.2684C37.7968 8.33389 35.5002 6.79932 32.9725 5.75235C30.4449 4.70537 27.7358 4.1665 25 4.1665C22.2641 4.1665 19.555 4.70537 17.0274 5.75235C14.4998 6.79932 12.2031 8.33389 10.2686 10.2684C8.33401 12.203 6.79944 14.4997 5.75247 17.0273C4.7055 19.5549 4.16663 22.264 4.16663 24.9998L25 24.9998H45.8333Z" fill="white"/>
<circle cx="25.0005" cy="24.999" r="6.25" fill="white"/>
<path d="M25 45.8332C36.5062 45.8332 45.8333 36.5061 45.8333 24.9998C45.8333 13.4936 36.5062 4.1665 25 4.1665C13.4937 4.1665 4.16663 13.4936 4.16663 24.9998C4.16663 36.5061 13.4937 45.8332 25 45.8332Z" stroke="#173EA5" stroke-width="1.5" stroke-linecap="round" stroke-linejoin="round"/>
<path d="M24.9998 31.25C26.6574 31.25 28.2471 30.5915 29.4192 29.4194C30.5913 28.2473 31.2498 26.6576 31.2498 25C31.2498 23.3424 30.5913 21.7527 29.4192 20.5806C28.2471 19.4085 26.6574 18.75 24.9998 18.75C23.3422 18.75 21.7524 19.4085 20.5803 20.5806C19.4082 21.7527 18.7498 23.3424 18.7498 25C18.7498 26.6576 19.4082 28.2473 20.5803 29.4194C21.7524 30.5915 23.3422 31.25 24.9998 31.25V31.25Z" stroke="#173EA5" stroke-width="1.5" stroke-linecap="round" stroke-linejoin="round"/>
<path d="M4.16663 24.9995H18.75M31.25 24.9995H45.8333" stroke="#173EA5" stroke-width="1.5"/>
</svg>
