<svg width="204" height="204" viewBox="0 0 204 204" fill="none" xmlns="http://www.w3.org/2000/svg">
<g clip-path="url(#clip0_1239_35365)">
<path fill-rule="evenodd" clip-rule="evenodd" d="M91.3967 180.432C95.2723 181.026 99.2416 181.333 103.283 181.333C146.315 181.333 181.2 146.449 181.2 103.417C181.2 60.3844 146.315 25.5 103.283 25.5C100.396 25.5 97.5454 25.657 94.74 25.963C116.086 42.1352 130.2 70.1497 130.2 102C130.2 135.485 114.601 164.73 91.3967 180.432ZM101.866 204C158.2 204 203.867 158.333 203.867 102C203.867 45.6669 158.2 0 101.866 0C45.5334 0 -0.133484 45.6669 -0.133484 102C-0.133484 158.333 45.5334 204 101.866 204Z" fill="url(#paint0_linear_1239_35365)"/>
</g>
<defs>
<linearGradient id="paint0_linear_1239_35365" x1="0.0832712" y1="-0.00268557" x2="103.382" y2="246.056" gradientUnits="userSpaceOnUse">
<stop stop-color="white"/>
<stop offset="1" stop-color="white" stop-opacity="0"/>
</linearGradient>
<clipPath id="clip0_1239_35365">
<rect width="204" height="204" fill="white"/>
</clipPath>
</defs>
</svg>
