<svg width="20" height="20" viewBox="0 0 20 20" fill="none" xmlns="http://www.w3.org/2000/svg">
<path fill-rule="evenodd" clip-rule="evenodd" d="M8.97355 17.6895C9.35351 17.7476 9.74265 17.7778 10.1389 17.7778C14.3577 17.7778 17.7778 14.3577 17.7778 10.1389C17.7778 5.92004 14.3577 2.5 10.1389 2.5C9.85585 2.5 9.57636 2.51539 9.30132 2.54539C11.3941 4.1309 12.7778 6.87742 12.7778 10C12.7778 13.2828 11.2484 16.15 8.97355 17.6895ZM10 20C15.5228 20 20 15.5229 20 10C20 4.47715 15.5228 0 10 0C4.47714 0 0 4.47715 0 10C0 15.5229 4.47714 20 10 20Z" fill="#5A5465"/>
</svg>
