<svg width="101" height="100" viewBox="0 0 101 100" fill="none" xmlns="http://www.w3.org/2000/svg">
<path d="M8.83378 49.9993C8.83378 55.4711 9.91152 60.8893 12.0055 65.9445C14.0994 70.9997 17.1686 75.593 21.0377 79.4621C24.9068 83.3312 29.5001 86.4004 34.5553 88.4943C39.6105 90.5883 45.0287 91.666 50.5004 91.666C55.9722 91.666 61.3904 90.5883 66.4456 88.4943C71.5008 86.4004 76.0941 83.3312 79.9632 79.4621C83.8323 75.593 86.9015 70.9997 88.9954 65.9445C91.0894 60.8893 92.1671 55.4711 92.1671 49.9993L50.5004 49.9993H8.83378Z" fill="black" fill-opacity="0.2"/>
<path d="M92.1666 49.9992C92.1666 44.5274 91.0889 39.1093 88.9949 34.054C86.901 28.9988 83.8318 24.4055 79.9627 20.5364C76.0936 16.6673 71.5003 13.5982 66.4451 11.5042C61.3898 9.41026 55.9717 8.33252 50.4999 8.33252C45.0282 8.33252 39.61 9.41026 34.5548 11.5042C29.4995 13.5982 24.9062 16.6673 21.0371 20.5364C17.168 24.4055 14.0989 28.9988 12.0049 34.054C9.91099 39.1093 8.83325 44.5274 8.83325 49.9992L50.4999 49.9992H92.1666Z" fill="white"/>
<circle cx="50.501" cy="49.9985" r="12.5" fill="white"/>
<path d="M50.4999 91.6659C73.5124 91.6659 92.1666 73.0117 92.1666 49.9992C92.1666 26.9867 73.5124 8.33252 50.4999 8.33252C27.4874 8.33252 8.83325 26.9867 8.83325 49.9992C8.83325 73.0117 27.4874 91.6659 50.4999 91.6659Z" stroke="#173EA5" stroke-width="1.5" stroke-linecap="round" stroke-linejoin="round"/>
<path d="M50.4996 62.4995C53.8148 62.4995 56.9943 61.1826 59.3385 58.8383C61.6827 56.4941 62.9996 53.3147 62.9996 49.9995C62.9996 46.6843 61.6827 43.5049 59.3385 41.1607C56.9943 38.8165 53.8148 37.4995 50.4996 37.4995C47.1844 37.4995 44.005 38.8165 41.6608 41.1607C39.3166 43.5049 37.9996 46.6843 37.9996 49.9995C37.9996 53.3147 39.3166 56.4941 41.6608 58.8383C44.005 61.1826 47.1844 62.4995 50.4996 62.4995V62.4995Z" stroke="#173EA5" stroke-width="1.5" stroke-linecap="round" stroke-linejoin="round"/>
<path d="M8.83325 49.999H37.9999M62.9999 49.999H92.1666" stroke="#173EA5" stroke-width="1.5"/>
</svg>
