<svg width="204" height="204" viewBox="0 0 204 204" fill="none" xmlns="http://www.w3.org/2000/svg">
<path fill-rule="evenodd" clip-rule="evenodd" d="M111.841 101.554C113.223 100.711 114.396 98.9444 115.342 96.9809C127.791 102.069 136.54 114.092 136.54 128.114C136.54 146.741 121.1 161.841 102.055 161.841C94.237 161.841 87.0265 159.296 81.2424 155.008C79.345 154.109 77.7839 153.246 76.5065 152.54C74.5251 151.445 73.2258 150.726 72.4122 150.839C70.0339 151.166 70.7244 153.355 71.3519 155.342C71.7779 156.693 72.1751 157.951 71.5603 158.469C70.9173 159.013 68.8342 157.027 66.4002 154.706C63.0868 151.547 59.1231 147.768 57.254 148.903C55.7762 149.801 57.211 152.235 58.9673 155.216L59.0976 155.437C59.8395 156.697 60.6993 157.98 61.4838 159.15C63.0788 161.529 64.3633 163.447 63.7207 163.771C62.9437 164.163 57.5305 160.509 52.9688 155.437C51.2081 153.479 49.5028 151.357 47.9178 149.385V149.385C44.4486 145.068 41.5584 141.472 39.9359 141.898C37.9842 142.411 39.4606 146.437 41.6301 150.311C42.6445 152.122 43.8378 153.967 44.871 155.564V155.565C46.4779 158.049 47.6975 159.934 47.2552 160.166C46.6584 160.478 41.4066 155.356 37.8395 148.903C35.7208 145.07 33.9418 140.833 32.5015 137.404C30.9396 133.685 29.7761 130.914 29.01 130.635C26.3482 129.667 26.3482 135.094 27.4158 142.927C27.555 143.949 27.7624 145.021 28.0178 146.112C38.3709 179.61 70.1746 204 107.803 204C153.829 204 191.14 167.508 191.14 122.492C191.14 79.6477 157.341 44.5242 114.398 41.2359C114.452 39.2176 115.506 35.2151 115.506 35.2151C115.506 35.2151 123.087 16.8727 123.488 12.9532C123.514 12.693 123.545 12.4103 123.579 12.1093C124.051 7.87428 124.93 0 118.156 0C114.538 0 112.856 2.6913 110.932 5.76934V5.76938C110.193 6.95102 109.418 8.18969 108.485 9.35492C101.764 17.7478 90.463 28.2288 84.0549 33.8127C70.5104 45.6147 57.2218 55.3143 49.4713 60.9713L49.4709 60.9717C45.946 63.5444 43.5669 65.2812 42.8306 65.9988C37.2819 71.408 17.3871 107.294 17.3871 107.294C17.3871 107.294 10.9533 118.807 13.2401 121.142C15.527 123.477 21.0417 122.942 21.0417 122.942C21.0417 122.942 95.1275 105.946 101.76 104.605C103.546 104.244 104.807 104.036 105.775 103.876C108.402 103.442 108.874 103.364 111.841 101.554ZM59.4594 79.713C55.4826 83.493 48.8872 92.5156 48.8872 92.5156C48.8872 92.5156 61.1448 93.2707 67.8955 86.8538C74.6466 80.4366 73.0999 69.5007 73.0999 69.5007C73.0999 69.5007 63.4358 75.9331 59.4594 79.713Z" fill="url(#paint0_linear_1239_35239)"/>
<defs>
<linearGradient id="paint0_linear_1239_35239" x1="12.9381" y1="-0.00268557" x2="125.859" y2="235.211" gradientUnits="userSpaceOnUse">
<stop stop-color="white"/>
<stop offset="1" stop-color="white" stop-opacity="0"/>
</linearGradient>
</defs>
</svg>
