<svg width="20" height="20" viewBox="0 0 20 20" fill="none" xmlns="http://www.w3.org/2000/svg">
<path fill-rule="evenodd" clip-rule="evenodd" d="M11.1095 9.95629C11.2645 9.87363 11.396 9.70043 11.5021 9.50793C12.8978 10.0068 13.8786 11.1855 13.8786 12.5602C13.8786 14.3863 12.1476 15.8668 10.0124 15.8668C9.1359 15.8668 8.32751 15.6173 7.67904 15.1968C7.46632 15.1088 7.2913 15.0241 7.14809 14.9549C6.92595 14.8475 6.78028 14.7771 6.68906 14.7881C6.42243 14.8202 6.49984 15.0348 6.57019 15.2296C6.61795 15.362 6.66248 15.4854 6.59356 15.5362C6.52146 15.5895 6.28793 15.3948 6.01504 15.1673C5.64356 14.8575 5.19918 14.487 4.98964 14.5983C4.82396 14.6863 4.98481 14.925 5.18172 15.2172L5.19632 15.2389C5.2795 15.3624 5.3759 15.4882 5.46385 15.603C5.64267 15.8362 5.78668 16.0242 5.71463 16.056C5.62752 16.0944 5.02064 15.7362 4.50921 15.2389C4.31181 15.047 4.12063 14.8389 3.94293 14.6456V14.6456C3.55399 14.2224 3.22995 13.8698 3.04806 13.9116C2.82924 13.9618 2.99477 14.3565 3.23799 14.7363C3.35172 14.9139 3.48551 15.0948 3.60134 15.2514V15.2514C3.78149 15.495 3.91823 15.6798 3.86864 15.7025C3.80173 15.7331 3.21293 15.231 2.81302 14.5983C2.57549 14.2225 2.37604 13.8072 2.21456 13.471C2.03945 13.1063 1.90901 12.8347 1.82312 12.8074C1.5247 12.7124 1.5247 13.2445 1.64439 14.0124C1.66 14.1126 1.68325 14.2177 1.71188 14.3247C2.87259 17.6088 6.43819 20 10.6568 20C15.8169 20 20 16.4223 20 12.0091C20 7.80859 16.2107 4.36512 11.3962 4.04273C11.4023 3.84486 11.5204 3.45246 11.5204 3.45246C11.5204 3.45246 12.3703 1.65419 12.4153 1.26992C12.4182 1.24441 12.4217 1.2167 12.4255 1.18718C12.4785 0.771988 12.577 0 11.8175 0C11.4119 0 11.2233 0.263853 11.0076 0.565621V0.565625C10.9248 0.681473 10.8379 0.80291 10.7333 0.917148C9.97981 1.73998 8.71279 2.76753 7.99436 3.31496C6.47585 4.47203 4.98602 5.42297 4.1171 5.97758L4.11705 5.97762C3.72186 6.22984 3.45513 6.40012 3.37258 6.47047C2.75051 7.00078 0.520039 10.519 0.520039 10.519C0.520039 10.519 -0.201269 11.6477 0.0551142 11.8767C0.311498 12.1056 0.929766 12.0531 0.929766 12.0531C0.929766 12.0531 9.23574 10.3868 9.97936 10.2554C10.1796 10.22 10.3209 10.1996 10.4294 10.1839C10.724 10.1414 10.7769 10.1337 11.1095 9.95629ZM5.23689 7.815C4.79103 8.18559 4.05161 9.07016 4.05161 9.07016C4.05161 9.07016 5.42584 9.14418 6.18268 8.51508C6.93957 7.88594 6.76616 6.81379 6.76616 6.81379C6.76616 6.81379 5.68269 7.44441 5.23689 7.815Z" fill="#0B6DC3"/>
</svg>
