<svg width="204" height="204" viewBox="0 0 204 204" fill="none" xmlns="http://www.w3.org/2000/svg">
<path fill-rule="evenodd" clip-rule="evenodd" d="M60.7869 0.232552C60.7475 0.118718 60.8323 0 60.9527 0L132.603 0C132.68 0 132.748 0.0500386 132.771 0.123429L165.681 106.451C165.716 106.564 165.632 106.678 165.513 106.678H117.813C117.755 106.678 117.713 106.733 117.729 106.79L145.086 203.094C145.14 203.281 144.895 203.403 144.778 203.247L38.4623 61.8642C38.3754 61.7487 38.4578 61.5837 38.6023 61.5837H81.8945C81.9547 61.5837 81.9969 61.5244 81.977 61.4674L60.7869 0.232552Z" fill="url(#paint0_linear_1239_36046)"/>
<defs>
<linearGradient id="paint0_linear_1239_36046" x1="38.562" y1="-0.00267659" x2="172.004" y2="198.954" gradientUnits="userSpaceOnUse">
<stop stop-color="white"/>
<stop offset="1" stop-color="white" stop-opacity="0"/>
</linearGradient>
</defs>
</svg>
