<svg width="20" height="20" viewBox="0 0 20 20" fill="none" xmlns="http://www.w3.org/2000/svg">
<path fill-rule="evenodd" clip-rule="evenodd" d="M2.98131 1.66272C3.24065 0.707086 4.16823 0 5.27272 0C6.1012 0 6.83014 0.39784 7.25219 1H7.9433C8.37266 0.588734 8.97254 0.333333 9.63636 0.333333C10.6096 0.333333 11.4455 0.882351 11.8078 1.66667H12.3865C12.749 1.45541 13.1774 1.33333 13.6363 1.33333C14.6096 1.33333 15.4455 1.88235 15.8078 2.66667H17.3813C17.3947 2.66667 17.4073 2.67005 17.4182 2.67594C17.49 2.6698 17.5628 2.66667 17.6363 2.66667C18.9418 2.66667 20 3.65435 20 4.87273V11.4877L20 11.5L20 11.5123V11.6075C20 11.6479 19.9988 11.6881 19.9964 11.7281C19.8542 16.3171 15.4331 20 9.99998 20C4.47715 20 0 16.1944 0 11.5C0 9.23402 1.04317 7.17512 2.74359 5.65137C2.73935 7.86047 2.77933 10.1443 2.96362 10.1051C3.45707 10.0001 3.07153 3.15779 2.98131 1.66272Z" fill="#CE416B"/>
</svg>
