<svg width="204" height="204" viewBox="0 0 204 204" fill="none" xmlns="http://www.w3.org/2000/svg">
<path fill-rule="evenodd" clip-rule="evenodd" d="M35.1541 16.9597C37.623 7.21228 46.4536 0 56.9684 0C64.8554 0 71.795 4.05797 75.8129 10.2H82.3923C86.4798 6.00509 92.1906 3.4 98.5103 3.4C107.776 3.4 115.733 8.99999 119.183 17H124.691C128.143 14.8452 132.221 13.6 136.59 13.6C145.856 13.6 153.813 19.2 157.263 27.2L172.242 27.2C172.37 27.2 172.49 27.2345 172.593 27.2946C173.277 27.232 173.97 27.2 174.67 27.2C187.098 27.2 197.172 37.2744 197.172 49.7019V117.175L197.172 117.3L197.172 117.425V118.397C197.172 118.809 197.161 119.219 197.138 119.627C195.784 166.434 153.695 204 101.972 204C49.3945 204 6.77197 165.183 6.77197 117.3C6.77197 94.1871 16.703 73.1862 32.891 57.644C32.8506 80.1768 33.2312 103.472 34.9856 103.072C39.6834 102.001 36.013 32.2095 35.1541 16.9597Z" fill="url(#paint0_linear_1239_35602)"/>
<defs>
<linearGradient id="paint0_linear_1239_35602" x1="6.97428" y1="-0.00268557" x2="115.251" y2="240.719" gradientUnits="userSpaceOnUse">
<stop stop-color="white"/>
<stop offset="1" stop-color="white" stop-opacity="0"/>
</linearGradient>
</defs>
</svg>
