<svg width="204" height="204" viewBox="0 0 204 204" fill="none" xmlns="http://www.w3.org/2000/svg">
<path fill-rule="evenodd" clip-rule="evenodd" d="M140.353 157.54C142.873 148.324 137.981 129.377 137.981 129.377C137.981 129.377 134.433 144.812 128.888 150.517C124.158 155.383 118.362 158.758 110.051 159.645C116.846 156.344 121.52 149.462 121.52 141.507C121.52 130.341 112.311 121.288 100.951 121.288C89.5919 121.288 80.3828 130.341 80.3828 141.507C80.3828 144.557 81.0702 147.449 82.3001 150.042C75.1952 144.382 74.078 135.307 74.078 135.307C74.078 135.307 66.1443 168.246 88.005 183.74C109.865 199.235 152.689 185.917 152.689 185.917C152.689 185.917 91.4056 229.037 45.9941 182.106C6.8758 141.678 35.7842 88.4544 35.7842 88.4544C35.7842 88.4544 34.5357 93.3918 34.5357 99.1233C34.5357 104.855 37.6432 109.216 37.6432 109.216C37.6432 109.216 46.9129 89.6768 54.127 81.7307C60.9546 74.2106 69.5135 68.1113 76.9061 62.8432C82.5966 58.7879 87.5962 55.2251 90.5821 51.8858C107.028 33.4961 96.9443 0 96.9443 0C96.9443 0 115.484 16.3439 120.659 37.4523C122.632 45.4984 121.363 54.6533 120.228 62.84C118.386 76.1303 116.897 86.8694 130.207 86.1725C151.715 85.0461 133.025 51.8858 133.025 51.8858C133.025 51.8858 181.814 77.5292 178.169 122.378C174.524 167.227 124.84 177.423 124.84 177.423C124.84 177.423 137.832 166.756 140.353 157.54Z" fill="url(#paint0_linear_1417_18243)"/>
<defs>
<linearGradient id="paint0_linear_1417_18243" x1="25.6624" y1="-0.00268557" x2="149.076" y2="220.28" gradientUnits="userSpaceOnUse">
<stop stop-color="white"/>
<stop offset="1" stop-color="white" stop-opacity="0"/>
</linearGradient>
</defs>
</svg>
