<svg width="20" height="20" viewBox="0 0 20 20" fill="none" xmlns="http://www.w3.org/2000/svg">
<path fill-rule="evenodd" clip-rule="evenodd" d="M15.0268 15.4451C15.3566 14.5415 14.7165 12.684 14.7165 12.684C14.7165 12.684 14.2522 14.1972 13.5268 14.7565C12.9079 15.2336 12.1497 15.5645 11.0622 15.6515C11.9513 15.3279 12.5627 14.6531 12.5627 13.8732C12.5627 12.7785 11.3579 11.891 9.87171 11.891C8.38549 11.891 7.18061 12.7785 7.18061 13.8732C7.18061 14.1722 7.27054 14.4558 7.43146 14.71C6.50189 14.1551 6.35571 13.2654 6.35571 13.2654C6.35571 13.2654 5.31771 16.4947 8.17786 18.0138C11.038 19.5328 16.6408 18.2271 16.6408 18.2271C16.6408 18.2271 8.62278 22.4546 2.68135 17.8535C-2.4367 13.89 1.34553 8.672 1.34553 8.672C1.34553 8.672 1.18219 9.15606 1.18219 9.71797C1.18219 10.2799 1.58876 10.7074 1.58876 10.7074C1.58876 10.7074 2.80156 8.79184 3.74542 8.01282C4.63872 7.27555 5.75852 6.67758 6.72573 6.1611C7.47025 5.76352 8.12437 5.41422 8.51503 5.08684C10.6668 3.28394 9.34744 0 9.34744 0C9.34744 0 11.773 1.60234 12.4502 3.67179C12.7083 4.46063 12.5423 5.35817 12.3938 6.16078C12.1527 7.46375 11.9579 8.5166 13.6993 8.44828C16.5134 8.33785 14.068 5.08684 14.068 5.08684C14.068 5.08684 20.4514 7.6009 19.9746 11.9979C19.4976 16.3948 12.9972 17.3944 12.9972 17.3944C12.9972 17.3944 14.697 16.3486 15.0268 15.4451Z" fill="#FF9D55"/>
</svg>
