<svg width="204" height="204" viewBox="0 0 204 204" fill="none" xmlns="http://www.w3.org/2000/svg">
<path fill-rule="evenodd" clip-rule="evenodd" d="M71.2056 190.347C101.09 190.347 126.674 173.738 137.236 150.193C137.365 149.906 94.8309 161.247 96.1872 157.238C96.7929 155.448 122.867 145.923 141.863 134.813C152.781 128.427 157.809 114.909 157.809 114.909C157.809 114.909 139.415 123.84 130.115 126.106C111.376 130.672 94.8804 130.18 94.8804 129.705C94.8804 128.676 122.271 123.471 160.341 100.272C178.248 89.3604 183.112 70.5645 183.112 70.5645C183.112 70.5645 163.424 82.2913 151.523 86.1629C123.299 95.3441 97.5435 98.1109 97.5435 96.8686C97.5435 94.2086 120.209 87.9758 144.241 76.3315C156.736 70.2772 167.557 62.3674 180.097 53.5711C200.616 39.1792 204 13.5469 204 13.5469C204 13.5469 183.762 26.5997 173.886 30.9345C133.134 48.821 97.1507 58.2034 71.2056 60.2346C32.0408 63.301 0 90.627 0 126.106C0 161.585 31.8798 190.347 71.2056 190.347Z" fill="url(#paint0_linear_1239_35156)"/>
<defs>
<linearGradient id="paint0_linear_1239_35156" x1="0.216755" y1="13.5445" x2="80.8111" y2="235.056" gradientUnits="userSpaceOnUse">
<stop stop-color="white"/>
<stop offset="1" stop-color="white" stop-opacity="0"/>
</linearGradient>
</defs>
</svg>
