<svg width="20" height="20" viewBox="0 0 20 20" fill="none" xmlns="http://www.w3.org/2000/svg">
<path fill-rule="evenodd" clip-rule="evenodd" d="M6.98095 20C9.91076 20 12.419 18.1212 13.4546 15.4578C13.4672 15.4253 9.29717 16.7082 9.43014 16.2547C9.48951 16.0522 12.0458 14.9747 13.9082 13.7179C14.9786 12.9955 15.4715 11.4664 15.4715 11.4664C15.4715 11.4664 13.6681 12.4766 12.7564 12.7329C10.9192 13.2495 9.30201 13.1938 9.30201 13.14C9.30201 13.0236 11.9874 12.4349 15.7197 9.81059C17.4753 8.57619 17.9521 6.44996 17.9521 6.44996C17.9521 6.44996 16.022 7.77652 14.8552 8.21449C12.0882 9.25309 9.5631 9.56607 9.5631 9.42553C9.5631 9.12463 11.7853 8.41957 14.1413 7.10233C15.3663 6.41746 16.4272 5.52269 17.6566 4.52763C19.6682 2.89958 20 0 20 0C20 0 18.0159 1.47657 17.0477 1.96692C13.0524 3.99028 9.52459 5.05164 6.98095 5.28142C3.14126 5.62829 0 8.71948 0 12.7329C0 16.7464 3.12547 20 6.98095 20Z" fill="#89AAE3"/>
</svg>
