<svg width="20" height="20" viewBox="0 0 20 20" fill="none" xmlns="http://www.w3.org/2000/svg">
<path fill-rule="evenodd" clip-rule="evenodd" d="M14.4122 19.9307C12.6082 20.0231 10.5428 20.0231 9.84094 19.9307C4.36602 19.2105 0 15.2075 0 9.79688C0 4.38621 4.47715 0 10 0C15.5229 0 20 4.38621 20 9.79688C20 12.3133 19.0315 14.6082 17.4398 16.3432C17.0076 16.8144 17.6007 17.1448 18.2032 17.4806C18.7941 17.81 19.3942 18.1444 19.0455 18.6216C18.6612 19.1474 16.5778 19.8199 14.4122 19.9307ZM8.59375 8.57227C8.59375 9.41766 7.89418 10.103 7.03125 10.103C6.16832 10.103 5.46875 9.41766 5.46875 8.57227C5.46875 8.00527 5.7834 7.51031 6.25094 7.24574C6.27785 7.98289 6.88394 8.57223 7.6277 8.57223H8.59375V8.57227ZM13.4366 7.24574C13.4096 7.98289 12.8036 8.57223 12.0598 8.57223H11.0938V8.57227C11.0938 9.41766 11.7933 10.103 12.6562 10.103C13.5192 10.103 14.2188 9.41766 14.2188 8.57227C14.2188 8.00527 13.9041 7.51031 13.4366 7.24574Z" fill="#5269AD"/>
</svg>
