<svg width="204" height="204" viewBox="0 0 204 204" fill="none" xmlns="http://www.w3.org/2000/svg">
<path fill-rule="evenodd" clip-rule="evenodd" d="M38.8286 175.571C38.1284 174.913 37.4359 174.241 36.7514 173.557C0.619307 137.425 0.619313 78.843 36.7514 42.7111C72.8834 6.57882 188.014 4.16162 188.014 4.16162C188.014 4.16162 203.73 137.425 167.598 173.557C135.507 205.647 85.7099 209.237 49.6581 184.327L78.7074 148.678L125.145 138.652L87.2383 134.863L111.329 110.334L138.751 104.327L117.067 97.9055L138.751 58.7885L107.908 93.384L95.9972 76.5767L100.19 104.327L78.7074 128.545L68.7492 97.9051V138.652L38.8286 175.571Z" fill="url(#paint0_linear_1417_18240)"/>
<defs>
<linearGradient id="paint0_linear_1417_18240" x1="9.84547" y1="4.15903" x2="114.756" y2="235.323" gradientUnits="userSpaceOnUse">
<stop stop-color="white"/>
<stop offset="1" stop-color="white" stop-opacity="0"/>
</linearGradient>
</defs>
</svg>
