<svg width="20" height="20" viewBox="0 0 20 20" fill="none" xmlns="http://www.w3.org/2000/svg">
<path fill-rule="evenodd" clip-rule="evenodd" d="M3.21036 17.4468C3.13331 17.3797 3.05712 17.3114 2.98181 17.2417C-0.993936 13.5641 -0.993935 7.60137 2.98181 3.92372C6.95753 0.246033 19.6258 0 19.6258 0C19.6258 0 21.355 13.5641 17.3793 17.2417C13.8483 20.508 8.36887 20.8734 4.40197 18.338L7.59836 14.7095L12.7081 13.689L8.53705 13.3033L11.1878 10.8067L14.2051 10.1952L11.8192 9.54163L14.2051 5.56014L10.8114 9.08141L9.50081 7.3707L9.96216 10.1952L7.59836 12.6602L6.50263 9.54159V13.689L3.21036 17.4468Z" fill="#63BC5A"/>
</svg>
