<svg width="204" height="204" viewBox="0 0 204 204" fill="none" xmlns="http://www.w3.org/2000/svg">
<path fill-rule="evenodd" clip-rule="evenodd" d="M44.9294 175.215C44.8741 175.215 44.8354 175.16 44.8537 175.108L96.9355 27.944C96.9471 27.912 96.9774 27.8906 97.0112 27.8906H152.61C152.644 27.8906 152.675 27.9122 152.686 27.9444L203.995 175.108C204.013 175.16 203.974 175.215 203.919 175.215H46.4945H44.9294ZM0.0802079 175.79C0.0242697 175.79 -0.0144574 175.735 0.00516404 175.682L38.7889 72.1395C38.8007 72.108 38.8306 72.0873 38.864 72.0873H72.5627C72.6185 72.0873 72.6571 72.1427 72.638 72.1949L35.1352 175.738C35.1237 175.769 35.0936 175.79 35.0598 175.79H0.0802079Z" fill="url(#paint0_linear_1239_36004)"/>
<defs>
<linearGradient id="paint0_linear_1239_36004" x1="0.216754" y1="27.8887" x2="58.6676" y2="219.931" gradientUnits="userSpaceOnUse">
<stop stop-color="white"/>
<stop offset="1" stop-color="white" stop-opacity="0"/>
</linearGradient>
</defs>
</svg>
