<svg width="144" height="105" viewBox="0 0 144 105" fill="none" xmlns="http://www.w3.org/2000/svg">
<path fill-rule="evenodd" clip-rule="evenodd" d="M31.7149 104.194C31.6758 104.194 31.6485 104.155 31.6614 104.118L68.425 0.237884C68.4332 0.215299 68.4546 0.200195 68.4785 0.200195H107.725C107.749 0.200195 107.77 0.215412 107.778 0.238137L143.996 104.118C144.009 104.155 143.982 104.194 143.943 104.194H32.8196H31.7149ZM0.0566173 104.6C0.0171316 104.6 -0.0102052 104.561 0.00364521 104.524L27.3804 31.4347C27.3887 31.4125 27.4098 31.3979 27.4334 31.3979H51.2207C51.2601 31.3979 51.2873 31.4369 51.2738 31.4738L24.8013 104.563C24.7932 104.585 24.7719 104.6 24.7481 104.6H0.0566173Z" fill="#D97845"/>
</svg>
