<svg width="204" height="204" viewBox="0 0 204 204" fill="none" xmlns="http://www.w3.org/2000/svg">
<path fill-rule="evenodd" clip-rule="evenodd" d="M150.704 11.5566L151.331 66.6805L103.252 89.7608L102.659 37.7133L150.704 11.5566Z" fill="url(#paint0_radial_1239_36172)"/>
<path fill-rule="evenodd" clip-rule="evenodd" d="M198.902 98.4214L151.306 125.645L103.683 98.3784L151.282 73.3756L198.902 98.4214Z" fill="url(#paint1_radial_1239_36172)"/>
<path fill-rule="evenodd" clip-rule="evenodd" d="M95.2192 98.4214L47.6238 125.645L0 98.3784L47.5991 73.3756L95.2192 98.4214Z" fill="url(#paint2_radial_1239_36172)"/>
<path fill-rule="evenodd" clip-rule="evenodd" d="M47.0835 11.334L96.4842 35.8003L95.2212 89.1177L48.5777 66.017L47.0835 11.334Z" fill="url(#paint3_radial_1239_36172)"/>
<path fill-rule="evenodd" clip-rule="evenodd" d="M152.054 184.671L102.653 160.204L103.916 106.887L150.56 129.988L152.054 184.671Z" fill="url(#paint4_radial_1239_36172)"/>
<path fill-rule="evenodd" clip-rule="evenodd" d="M48.7966 185.169L48.1687 130.045L96.2485 106.965L96.8414 159.012L48.7966 185.169Z" fill="url(#paint5_radial_1239_36172)"/>
<defs>
<radialGradient id="paint0_radial_1239_36172" cx="0" cy="0" r="1" gradientUnits="userSpaceOnUse" gradientTransform="translate(9.00001 11.0035) rotate(42.4831) scale(257.635 294.787)">
<stop stop-color="white"/>
<stop offset="1" stop-color="white" stop-opacity="0"/>
</radialGradient>
<radialGradient id="paint1_radial_1239_36172" cx="0" cy="0" r="1" gradientUnits="userSpaceOnUse" gradientTransform="translate(9.00001 11.0035) rotate(42.4831) scale(257.635 294.787)">
<stop stop-color="white"/>
<stop offset="1" stop-color="white" stop-opacity="0"/>
</radialGradient>
<radialGradient id="paint2_radial_1239_36172" cx="0" cy="0" r="1" gradientUnits="userSpaceOnUse" gradientTransform="translate(9.00001 11.0035) rotate(42.4831) scale(257.635 294.787)">
<stop stop-color="white"/>
<stop offset="1" stop-color="white" stop-opacity="0"/>
</radialGradient>
<radialGradient id="paint3_radial_1239_36172" cx="0" cy="0" r="1" gradientUnits="userSpaceOnUse" gradientTransform="translate(9.00001 11.0035) rotate(42.4831) scale(257.635 294.787)">
<stop stop-color="white"/>
<stop offset="1" stop-color="white" stop-opacity="0"/>
</radialGradient>
<radialGradient id="paint4_radial_1239_36172" cx="0" cy="0" r="1" gradientUnits="userSpaceOnUse" gradientTransform="translate(9.00001 11.0035) rotate(42.4831) scale(257.635 294.787)">
<stop stop-color="white"/>
<stop offset="1" stop-color="white" stop-opacity="0"/>
</radialGradient>
<radialGradient id="paint5_radial_1239_36172" cx="0" cy="0" r="1" gradientUnits="userSpaceOnUse" gradientTransform="translate(9.00001 11.0035) rotate(42.4831) scale(257.635 294.787)">
<stop stop-color="white"/>
<stop offset="1" stop-color="white" stop-opacity="0"/>
</radialGradient>
</defs>
</svg>
