<svg width="20" height="20" viewBox="0 0 20 20" fill="none" xmlns="http://www.w3.org/2000/svg">
<path fill-rule="evenodd" clip-rule="evenodd" d="M15.1536 0.0256096L15.2167 6.36772L10.3822 9.02314L10.3226 3.03499L15.1536 0.0256096Z" fill="#73CEC0"/>
<path fill-rule="evenodd" clip-rule="evenodd" d="M20 10.0196L15.2142 13.1517L10.4255 10.0146L15.2117 7.138L20 10.0196Z" fill="#73CEC0"/>
<path fill-rule="evenodd" clip-rule="evenodd" d="M9.57449 10.0196L4.78867 13.1517L0 10.0146L4.78619 7.138L9.57449 10.0196Z" fill="#73CEC0"/>
<path fill-rule="evenodd" clip-rule="evenodd" d="M4.73435 0L9.70169 2.8149L9.57469 8.94915L4.88459 6.29138L4.73435 0Z" fill="#73CEC0"/>
<path fill-rule="evenodd" clip-rule="evenodd" d="M15.2894 19.9427L10.322 17.1278L10.449 10.9935L15.1391 13.6513L15.2894 19.9427Z" fill="#73CEC0"/>
<path fill-rule="evenodd" clip-rule="evenodd" d="M4.9066 20L4.84346 13.6579L9.67799 11.0025L9.73761 16.9906L4.9066 20Z" fill="#73CEC0"/>
</svg>
