<svg width="101" height="100" viewBox="0 0 101 100" fill="none" xmlns="http://www.w3.org/2000/svg">
<path d="M8.8339 49.9993C8.8339 55.4711 9.91164 60.8893 12.0056 65.9445C14.0995 70.9997 17.1687 75.593 21.0378 79.4621C24.9069 83.3312 29.5002 86.4004 34.5554 88.4943C39.6107 90.5883 45.0288 91.666 50.5006 91.666C55.9723 91.666 61.3905 90.5883 66.4457 88.4943C71.5009 86.4004 76.0942 83.3312 79.9634 79.4621C83.8325 75.593 86.9016 70.9997 88.9956 65.9445C91.0895 60.8893 92.1672 55.4711 92.1672 49.9993L50.5006 49.9993H8.8339Z" fill="white"/>
<path d="M92.1666 49.9992C92.1666 44.5274 91.0889 39.1093 88.9949 34.054C86.901 28.9988 83.8318 24.4055 79.9627 20.5364C76.0936 16.6673 71.5003 13.5982 66.4451 11.5042C61.3898 9.41026 55.9717 8.33252 50.4999 8.33252C45.0282 8.33252 39.61 9.41026 34.5548 11.5042C29.4995 13.5982 24.9062 16.6673 21.0371 20.5364C17.168 24.4055 14.0989 28.9988 12.0049 34.054C9.91099 39.1093 8.83325 44.5274 8.83325 49.9992L50.4999 49.9992H92.1666Z" fill="white"/>
<circle cx="50.501" cy="49.9985" r="12.5" fill="white"/>
<path d="M50.4999 91.6659C73.5124 91.6659 92.1666 73.0117 92.1666 49.9992C92.1666 26.9867 73.5124 8.33252 50.4999 8.33252C27.4874 8.33252 8.83325 26.9867 8.83325 49.9992C8.83325 73.0117 27.4874 91.6659 50.4999 91.6659Z" stroke="#173EA5" stroke-width="1.5" stroke-linecap="round" stroke-linejoin="round"/>
<path d="M50.4995 62.4995C53.8147 62.4995 56.9941 61.1826 59.3383 58.8383C61.6826 56.4941 62.9995 53.3147 62.9995 49.9995C62.9995 46.6843 61.6826 43.5049 59.3383 41.1607C56.9941 38.8165 53.8147 37.4995 50.4995 37.4995C47.1843 37.4995 44.0049 38.8165 41.6607 41.1607C39.3165 43.5049 37.9995 46.6843 37.9995 49.9995C37.9995 53.3147 39.3165 56.4941 41.6607 58.8383C44.0049 61.1826 47.1843 62.4995 50.4995 62.4995V62.4995Z" stroke="#173EA5" stroke-width="1.5" stroke-linecap="round" stroke-linejoin="round"/>
<path d="M8.83325 49.999H37.9999M62.9999 49.999H92.1666" stroke="#173EA5" stroke-width="1.5"/>
</svg>
