<svg width="36" height="35" viewBox="0 0 36 35" fill="none" xmlns="http://www.w3.org/2000/svg">
<path d="M3.41683 17.4997C3.41683 19.4148 3.79403 21.3111 4.52692 23.0805C5.2598 24.8498 6.334 26.4575 7.68819 27.8116C9.04237 29.1658 10.65 30.24 12.4194 30.9729C14.1887 31.7058 16.0851 32.083 18.0002 32.083C19.9153 32.083 21.8116 31.7058 23.581 30.9729C25.3503 30.24 26.9579 29.1658 28.3121 27.8116C29.6663 26.4575 30.7405 24.8498 31.4734 23.0805C32.2063 21.3111 32.5835 19.4148 32.5835 17.4997L18.0002 17.4997H3.41683Z" fill="white"/>
<path d="M32.5833 17.4998C32.5833 15.5847 32.2061 13.6884 31.4732 11.919C30.7403 10.1497 29.6661 8.54205 28.3119 7.18786C26.9578 5.83368 25.3501 4.75948 23.5808 4.02659C21.8114 3.29371 19.9151 2.9165 18 2.9165C16.0849 2.9165 14.1885 3.29371 12.4192 4.02659C10.6498 4.75948 9.04219 5.83368 7.688 7.18786C6.33381 8.54205 5.25961 10.1497 4.52673 11.919C3.79385 13.6884 3.41664 15.5847 3.41664 17.4998L18 17.4998H32.5833Z" fill="white"/>
<ellipse cx="18.0003" cy="17.4995" rx="4.375" ry="4.375" fill="white"/>
<path d="M18 32.0832C26.0544 32.0832 32.5833 25.5542 32.5833 17.4998C32.5833 9.44546 26.0544 2.9165 18 2.9165C9.9456 2.9165 3.41664 9.44546 3.41664 17.4998C3.41664 25.5542 9.9456 32.0832 18 32.0832Z" stroke="#173EA5" stroke-width="1.5" stroke-linecap="round" stroke-linejoin="round"/>
<path d="M17.9999 21.875C19.1602 21.875 20.273 21.4141 21.0935 20.5936C21.9139 19.7731 22.3749 18.6603 22.3749 17.5C22.3749 16.3397 21.9139 15.2269 21.0935 14.4064C20.273 13.5859 19.1602 13.125 17.9999 13.125C16.8395 13.125 15.7267 13.5859 14.9063 14.4064C14.0858 15.2269 13.6249 16.3397 13.6249 17.5C13.6249 18.6603 14.0858 19.7731 14.9063 20.5936C15.7267 21.4141 16.8395 21.875 17.9999 21.875V21.875Z" stroke="#173EA5" stroke-width="1.5" stroke-linecap="round" stroke-linejoin="round"/>
<path d="M3.41664 17.4995H13.625M22.375 17.4995H32.5833" stroke="#173EA5" stroke-width="1.5"/>
</svg>
