<svg width="204" height="204" viewBox="0 0 204 204" fill="none" xmlns="http://www.w3.org/2000/svg">
<g clip-path="url(#clip0_1239_36130)">
<path fill-rule="evenodd" clip-rule="evenodd" d="M203.999 101.978C203.999 158.311 158.332 203.977 101.999 203.977C45.6668 203.977 0 158.311 0 101.978C0 45.6453 45.6668 -0.0214844 101.999 -0.0214844C158.332 -0.0214844 203.999 45.6453 203.999 101.978ZM160.285 101.978C160.285 134.168 134.19 160.263 101.999 160.263C69.8094 160.263 43.7143 134.168 43.7143 101.978C43.7143 69.7879 69.8094 43.6928 101.999 43.6928C134.19 43.6928 160.285 69.7879 160.285 101.978Z" fill="url(#paint0_linear_1239_36130)"/>
</g>
<defs>
<linearGradient id="paint0_linear_1239_36130" x1="0.216754" y1="-0.0241699" x2="103.515" y2="246.033" gradientUnits="userSpaceOnUse">
<stop stop-color="white"/>
<stop offset="1" stop-color="white" stop-opacity="0"/>
</linearGradient>
<clipPath id="clip0_1239_36130">
<rect width="204" height="204" fill="white"/>
</clipPath>
</defs>
</svg>
