<svg width="41" height="40" viewBox="0 0 41 40" fill="none" xmlns="http://www.w3.org/2000/svg">
<g clip-path="url(#clip0_2272_10387)">
<path fill-rule="evenodd" clip-rule="evenodd" d="M21.9821 11.8514L26.0049 7.82861C27.3383 6.49528 28.0049 5.82861 28.8333 5.82861C29.6618 5.82861 30.3284 6.49528 31.6618 7.82861L32.6716 8.83843C34.0049 10.1718 34.6716 10.8384 34.6716 11.6669C34.6716 12.4953 34.0049 13.1619 32.6716 14.4953L28.6851 18.4818C25.9167 16.8716 23.6123 14.5844 21.9821 11.8514ZM20.5279 13.3057L8.02306 25.8105C7.598 26.2355 7.38547 26.4481 7.24574 26.7092C7.106 26.9703 7.04706 27.265 6.92917 27.8544L5.6471 34.2647C5.58058 34.5974 5.54732 34.7637 5.64193 34.8583C5.73653 34.9529 5.90283 34.9196 6.23541 34.8531L6.23544 34.8531L6.23545 34.8531L12.6458 33.571C13.2352 33.4531 13.5299 33.3942 13.791 33.2545C14.0521 33.1147 14.2647 32.9022 14.6897 32.4771L27.2271 19.9398C24.5095 18.2655 22.2194 15.9915 20.5279 13.3057Z" fill="black" fill-opacity="0.8"/>
</g>
<defs>
<clipPath id="clip0_2272_10387">
<rect width="40" height="40" fill="white" transform="translate(0.5)"/>
</clipPath>
</defs>
</svg>
