<svg width="40" height="40" viewBox="0 0 40 40" fill="none" xmlns="http://www.w3.org/2000/svg">
<path d="M3.33366 19.9998C3.33366 22.1885 3.76475 24.3558 4.60233 26.3779C5.43991 28.4 6.66757 30.2373 8.21521 31.785C9.76285 33.3326 11.6002 34.5603 13.6223 35.3978C15.6444 36.2354 17.8116 36.6665 20.0003 36.6665C22.189 36.6665 24.3563 36.2354 26.3784 35.3978C28.4005 34.5603 30.2378 33.3326 31.7854 31.7849C33.3331 30.2373 34.5607 28.4 35.3983 26.3779C36.2359 24.3558 36.667 22.1885 36.667 19.9998L20.0003 19.9998H3.33366Z" fill="white"/>
<path d="M36.6663 19.9997C36.6663 17.811 36.2352 15.6437 35.3977 13.6216C34.5601 11.5995 33.3324 9.7622 31.7848 8.21456C30.2371 6.66692 28.3998 5.43926 26.3777 4.60168C24.3556 3.7641 22.1884 3.33301 19.9997 3.33301C17.811 3.33301 15.6437 3.7641 13.6216 4.60168C11.5995 5.43926 9.7622 6.66692 8.21456 8.21456C6.66692 9.76221 5.43926 11.5995 4.60168 13.6216C3.7641 15.6437 3.33301 17.811 3.33301 19.9997L19.9997 19.9997H36.6663Z" fill="#CD3131"/>
<ellipse cx="20" cy="19.9995" rx="5" ry="5" fill="white"/>
<path d="M19.9997 36.6663C29.2047 36.6663 36.6663 29.2047 36.6663 19.9997C36.6663 10.7947 29.2047 3.33301 19.9997 3.33301C10.7947 3.33301 3.33301 10.7947 3.33301 19.9997C3.33301 29.2047 10.7947 36.6663 19.9997 36.6663Z" stroke="#173EA5" stroke-width="1.5" stroke-linecap="round" stroke-linejoin="round"/>
<path d="M20 24.9995C21.3261 24.9995 22.5979 24.4727 23.5355 23.535C24.4732 22.5974 25 21.3256 25 19.9995C25 18.6734 24.4732 17.4017 23.5355 16.464C22.5979 15.5263 21.3261 14.9995 20 14.9995C18.6739 14.9995 17.4021 15.5263 16.4645 16.464C15.5268 17.4017 15 18.6734 15 19.9995C15 21.3256 15.5268 22.5974 16.4645 23.535C17.4021 24.4727 18.6739 24.9995 20 24.9995V24.9995Z" stroke="#173EA5" stroke-width="1.5" stroke-linecap="round" stroke-linejoin="round"/>
<path d="M3.33301 19.9995H14.9997M24.9997 19.9995H36.6663" stroke="#173EA5" stroke-width="1.5"/>
</svg>
