<svg width="204" height="204" viewBox="0 0 204 204" fill="none" xmlns="http://www.w3.org/2000/svg">
<path fill-rule="evenodd" clip-rule="evenodd" d="M181.658 169.409C181.658 169.409 155.935 190.04 104.746 181.503C65.9107 175.025 45.1976 132.215 45.1976 109.203C45.1976 54.6453 85.5776 42.2296 112.877 42.2296C140.177 42.2296 157.986 68.8453 157.986 89.4525C157.986 110.06 143.411 128.084 120.729 128.084C98.0475 128.084 91.3299 112.161 91.3299 97.5208C91.3299 82.8814 103.174 77.7236 113.976 77.7236C124.778 77.7236 128.477 86.9459 128.477 94.872C128.477 102.799 122.327 105.637 117.198 105.637C112.068 105.637 111.561 103.049 109.598 100.329C107.634 97.6101 112.102 87.316 104.746 87.316C97.3913 87.316 96.0203 99.15 96.0203 99.15C96.0203 99.15 98.7018 121.994 120.729 121.6C142.757 121.205 153.206 104.176 150.17 87.316C147.133 70.4557 130.77 52.54 102.053 56.1602C73.336 59.7804 61.6112 88.7962 66.7793 119.804C71.9475 150.813 109.095 168.779 138.302 162.315C167.51 155.851 196.601 134.706 196.601 81.0952C196.601 27.4838 150.17 -4.74148 94.8046 0.569423C39.4397 5.88031 5.0717 54.2839 7.27156 112.442C9.47141 170.6 64.6565 202.274 111.321 203.907C157.986 205.54 186.593 178.527 186.593 178.527C186.593 178.527 193.027 172.79 190.504 168.31C187.982 163.83 181.658 169.409 181.658 169.409Z" fill="url(#paint0_linear_1239_35878)"/>
<defs>
<linearGradient id="paint0_linear_1239_35878" x1="7.37315" y1="-0.00268528" x2="115.998" y2="240.286" gradientUnits="userSpaceOnUse">
<stop stop-color="white"/>
<stop offset="1" stop-color="white" stop-opacity="0"/>
</linearGradient>
</defs>
</svg>
