<svg width="20" height="20" viewBox="0 0 20 20" fill="none" xmlns="http://www.w3.org/2000/svg">
<path fill-rule="evenodd" clip-rule="evenodd" d="M18.4223 16.6105C18.4223 16.6105 15.7064 18.6334 10.302 17.7963C6.20168 17.1612 4.01477 12.9636 4.01477 10.7074C4.01477 5.35796 8.27812 4.1406 11.1604 4.1406C14.0427 4.1406 15.923 6.75026 15.923 8.77079C15.923 10.7913 14.3842 12.5586 11.9894 12.5586C9.5947 12.5586 8.88545 10.9973 8.88545 9.56189C8.88545 8.1265 10.136 7.62079 11.2765 7.62079C12.417 7.62079 12.8075 8.52502 12.8075 9.30218C12.8075 10.0794 12.1582 10.3577 11.6166 10.3577C11.075 10.3577 11.0215 10.1039 10.8142 9.83728C10.6069 9.57065 11.0785 8.56132 10.302 8.56132C9.52542 8.56132 9.38066 9.72164 9.38066 9.72164C9.38066 9.72164 9.66378 11.9615 11.9894 11.9228C14.3151 11.8841 15.4184 10.2144 15.0978 8.56132C14.7771 6.90817 13.0496 5.15154 10.0176 5.50649C6.98565 5.86146 5.74774 8.70645 6.29339 11.7468C6.83904 14.7871 10.7611 16.5487 13.8448 15.915C16.9286 15.2812 20 13.2079 20 7.95137C20 2.69478 15.0978 -0.464901 9.25232 0.0558318C3.40686 0.576563 -0.221737 5.32253 0.0105245 11.0249C0.242786 16.7273 6.06926 19.833 10.9961 19.993C15.923 20.1531 18.9434 17.5045 18.9434 17.5045C18.9434 17.5045 19.6227 16.942 19.3563 16.5027C19.09 16.0635 18.4223 16.6105 18.4223 16.6105Z" fill="#FA7179"/>
</svg>
