<svg width="20" height="20" viewBox="0 0 20 20" fill="none" xmlns="http://www.w3.org/2000/svg">
<path fill-rule="evenodd" clip-rule="evenodd" d="M4.40486 19.9221C4.39943 19.9221 4.39564 19.9148 4.39744 19.9077L9.50351 0.00721999C9.50464 0.00289347 9.50761 0 9.51093 0H14.9618C14.9651 0 14.9681 0.00291504 14.9692 0.0072685L19.9996 19.9078C20.0013 19.9148 19.9975 19.9221 19.9921 19.9221H4.5583H4.40486ZM0.00786354 20C0.00237939 20 -0.00141739 19.9925 0.00050628 19.9854L3.80285 5.98364C3.804 5.97938 3.80693 5.97658 3.81021 5.97658H7.11401C7.11948 5.97658 7.12327 5.98407 7.12139 5.99113L3.44463 19.9929C3.44351 19.9971 3.44056 20 3.43725 20H0.00786354Z" fill="#D97845"/>
</svg>
