<svg width="204" height="204" viewBox="0 0 204 204" fill="none" xmlns="http://www.w3.org/2000/svg">
<g clip-path="url(#clip0_1239_35407)">
<path fill-rule="evenodd" clip-rule="evenodd" d="M157.438 97.5204C157.426 97.5045 157.422 97.4845 157.425 97.465L170.439 21.5761C170.445 21.5412 170.476 21.5156 170.511 21.5156H174.63C174.662 21.5156 174.69 21.5362 174.699 21.5665L204.02 114.404C204.03 114.432 204.02 114.464 203.996 114.483L182.377 131.362C182.345 131.387 182.298 131.381 182.274 131.348L157.438 97.5204ZM-0.398438 147.829C-0.398438 147.861 -0.378198 147.888 -0.348278 147.898L44.2166 162.47C44.2381 162.477 44.262 162.473 44.2808 162.461L143.894 93.6902C143.911 93.6787 143.922 93.6607 143.924 93.6408L154.607 21.9652C154.613 21.9212 154.579 21.8817 154.535 21.8817L66.3024 21.8817C66.2805 21.8817 66.2602 21.8914 66.2462 21.908L-0.381693 102.285C-0.392517 102.298 -0.398438 102.314 -0.398438 102.331L-0.398438 147.829ZM62.787 166.182L111.473 182.131C111.495 182.138 111.52 182.134 111.538 182.121L169.503 140.543C169.535 140.52 169.543 140.476 169.521 140.443L147.792 108.108C147.769 108.074 147.724 108.065 147.69 108.088L62.787 166.182Z" fill="url(#paint0_linear_1239_35407)"/>
</g>
<defs>
<linearGradient id="paint0_linear_1239_35407" x1="-0.181234" y1="21.5135" x2="67.6095" y2="227.03" gradientUnits="userSpaceOnUse">
<stop stop-color="white"/>
<stop offset="1" stop-color="white" stop-opacity="0"/>
</linearGradient>
<clipPath id="clip0_1239_35407">
<rect width="204" height="204" fill="white"/>
</clipPath>
</defs>
</svg>
