<svg width="20" height="20" viewBox="0 0 20 20" fill="none" xmlns="http://www.w3.org/2000/svg">
<path fill-rule="evenodd" clip-rule="evenodd" d="M0.00199651 10.0142C-0.000664243 10.0089 -0.000665579 10.0024 0.00199296 9.99705L5.03106 0.00836907C5.03368 0.00318777 5.03848 0 5.04364 0H15.0115C15.0167 0 15.0215 0.00321511 15.0241 0.00844182L19.998 9.99714C20.0007 10.0024 20.0007 10.0089 19.998 10.0141L15.0241 19.9916C15.0215 19.9968 15.0167 20 15.0115 20H5.04364C5.03848 20 5.03368 19.9968 5.03106 19.9916L0.00199651 10.0142ZM14.6335 10C14.6335 12.9738 12.5597 15.3846 10.0016 15.3846C7.44345 15.3846 5.36966 12.9738 5.36966 10C5.36966 7.02613 7.44345 4.6154 10.0016 4.6154C12.5597 4.6154 14.6335 7.02613 14.6335 10Z" fill="#5A8EA2"/>
</svg>
