<svg width="204" height="204" viewBox="0 0 204 204" fill="none" xmlns="http://www.w3.org/2000/svg">
<path fill-rule="evenodd" clip-rule="evenodd" d="M0.0203644 101.413C-0.00677527 101.367 -0.0067889 101.31 0.0203281 101.263L51.3168 13.6203C51.3435 13.5748 51.3925 13.5469 51.4451 13.5469L153.117 13.5469C153.17 13.5469 153.219 13.5751 153.246 13.6209L203.98 101.264C204.006 101.31 204.006 101.367 203.98 101.412L153.246 188.957C153.219 189.002 153.17 189.031 153.117 189.031H51.4451C51.3925 189.031 51.3435 189.003 51.3168 188.957L0.0203644 101.413ZM149.262 101.289C149.262 127.382 128.109 148.534 102.016 148.534C75.9231 148.534 54.7704 127.382 54.7704 101.289C54.7704 75.1955 75.9231 54.0433 102.016 54.0433C128.109 54.0433 149.262 75.1955 149.262 101.289Z" fill="url(#paint0_linear_1239_35281)"/>
<defs>
<linearGradient id="paint0_linear_1239_35281" x1="0.216755" y1="13.5446" x2="79.7536" y2="233.789" gradientUnits="userSpaceOnUse">
<stop stop-color="white"/>
<stop offset="1" stop-color="white" stop-opacity="0"/>
</linearGradient>
</defs>
</svg>
