<svg width="20" height="20" viewBox="0 0 20 20" fill="none" xmlns="http://www.w3.org/2000/svg">
<path fill-rule="evenodd" clip-rule="evenodd" d="M20 13.5364C20 17.1061 15.5229 20 10 20C4.47714 20 0 17.1061 0 13.5364C0 10.0645 9.45908 0.529239 9.97784 0.00889922C9.98971 -0.00296648 10.0104 -0.00296638 10.0222 0.00889934C10.5409 0.529239 20 10.0645 20 13.5364ZM8.33303 17.9278C3.25855 17.2074 4.1269 13.5604 4.1269 13.5604C4.1269 13.5604 5.51257 15.762 8.87522 16.4751C12.2378 17.1882 16.3015 16.1423 16.3015 16.1423C16.3015 16.1423 13.4075 18.6481 8.33303 17.9278Z" fill="#5090D6"/>
</svg>
