<svg width="95" height="24" viewBox="0 0 95 24" fill="none" xmlns="http://www.w3.org/2000/svg">
<path d="M3.648 16.553C3.088 16.553 2.584 16.457 2.136 16.265C1.688 16.065 1.336 15.785 1.08 15.425C0.824 15.065 0.696 14.645 0.696 14.165H2.16C2.192 14.525 2.332 14.821 2.58 15.053C2.836 15.285 3.192 15.401 3.648 15.401C4.12 15.401 4.488 15.289 4.752 15.065C5.016 14.833 5.148 14.537 5.148 14.177C5.148 13.897 5.064 13.669 4.896 13.493C4.736 13.317 4.532 13.181 4.284 13.085C4.044 12.989 3.708 12.885 3.276 12.773C2.732 12.629 2.288 12.485 1.944 12.341C1.608 12.189 1.32 11.957 1.08 11.645C0.84 11.333 0.72 10.917 0.72 10.397C0.72 9.91699 0.84 9.49699 1.08 9.13699C1.32 8.77699 1.656 8.50099 2.088 8.30899C2.52 8.11699 3.02 8.02099 3.588 8.02099C4.396 8.02099 5.056 8.22499 5.568 8.63299C6.088 9.03299 6.376 9.58499 6.432 10.289H4.92C4.896 9.98499 4.752 9.72499 4.488 9.50899C4.224 9.29299 3.876 9.18499 3.444 9.18499C3.052 9.18499 2.732 9.28499 2.484 9.48499C2.236 9.68499 2.112 9.97299 2.112 10.349C2.112 10.605 2.188 10.817 2.34 10.985C2.5 11.145 2.7 11.273 2.94 11.369C3.18 11.465 3.508 11.569 3.924 11.681C4.476 11.833 4.924 11.985 5.268 12.137C5.62 12.289 5.916 12.525 6.156 12.845C6.404 13.157 6.528 13.577 6.528 14.105C6.528 14.529 6.412 14.929 6.18 15.305C5.956 15.681 5.624 15.985 5.184 16.217C4.752 16.441 4.24 16.553 3.648 16.553ZM7.49299 13.157C7.49299 12.477 7.62899 11.881 7.90099 11.369C8.18099 10.849 8.56499 10.449 9.05299 10.169C9.54099 9.88899 10.101 9.74899 10.733 9.74899C11.533 9.74899 12.193 9.94099 12.713 10.325C13.241 10.701 13.597 11.241 13.781 11.945H12.305C12.185 11.617 11.993 11.361 11.729 11.177C11.465 10.993 11.133 10.901 10.733 10.901C10.173 10.901 9.72499 11.101 9.38899 11.501C9.06099 11.893 8.89699 12.445 8.89699 13.157C8.89699 13.869 9.06099 14.425 9.38899 14.825C9.72499 15.225 10.173 15.425 10.733 15.425C11.525 15.425 12.049 15.077 12.305 14.381H13.781C13.589 15.053 13.229 15.589 12.701 15.989C12.173 16.381 11.517 16.577 10.733 16.577C10.101 16.577 9.54099 16.437 9.05299 16.157C8.56499 15.869 8.18099 15.469 7.90099 14.957C7.62899 14.437 7.49299 13.837 7.49299 13.157ZM16.3191 10.817C16.5191 10.481 16.7831 10.221 17.1111 10.037C17.4471 9.84499 17.8431 9.74899 18.2991 9.74899V11.165H17.9511C17.4151 11.165 17.0071 11.301 16.7271 11.573C16.4551 11.845 16.3191 12.317 16.3191 12.989V16.469H14.9511V9.85699H16.3191V10.817ZM22.2314 16.577C21.6074 16.577 21.0434 16.437 20.5394 16.157C20.0354 15.869 19.6394 15.469 19.3514 14.957C19.0634 14.437 18.9194 13.837 18.9194 13.157C18.9194 12.485 19.0674 11.889 19.3634 11.369C19.6594 10.849 20.0634 10.449 20.5754 10.169C21.0874 9.88899 21.6594 9.74899 22.2914 9.74899C22.9234 9.74899 23.4954 9.88899 24.0074 10.169C24.5194 10.449 24.9234 10.849 25.2194 11.369C25.5154 11.889 25.6634 12.485 25.6634 13.157C25.6634 13.829 25.5114 14.425 25.2074 14.945C24.9034 15.465 24.4874 15.869 23.9594 16.157C23.4394 16.437 22.8634 16.577 22.2314 16.577ZM22.2314 15.389C22.5834 15.389 22.9114 15.305 23.2154 15.137C23.5274 14.969 23.7794 14.717 23.9714 14.381C24.1634 14.045 24.2594 13.637 24.2594 13.157C24.2594 12.677 24.1674 12.273 23.9834 11.945C23.7994 11.609 23.5554 11.357 23.2514 11.189C22.9474 11.021 22.6194 10.937 22.2674 10.937C21.9154 10.937 21.5874 11.021 21.2834 11.189C20.9874 11.357 20.7514 11.609 20.5754 11.945C20.3994 12.273 20.3114 12.677 20.3114 13.157C20.3114 13.869 20.4914 14.421 20.8514 14.813C21.2194 15.197 21.6794 15.389 22.2314 15.389ZM28.1905 7.58899V16.469H26.8225V7.58899H28.1905ZM31.1614 7.58899V16.469H29.7934V7.58899H31.1614ZM38.4122 8.12899C39.3002 8.12899 40.0762 8.30099 40.7402 8.64499C41.4122 8.98099 41.9282 9.46899 42.2882 10.109C42.6562 10.741 42.8402 11.481 42.8402 12.329C42.8402 13.177 42.6562 13.913 42.2882 14.537C41.9282 15.161 41.4122 15.641 40.7402 15.977C40.0762 16.305 39.3002 16.469 38.4122 16.469H35.6882V8.12899H38.4122ZM38.4122 15.353C39.3882 15.353 40.1362 15.089 40.6562 14.561C41.1762 14.033 41.4362 13.289 41.4362 12.329C41.4362 11.361 41.1762 10.605 40.6562 10.061C40.1362 9.51699 39.3882 9.24499 38.4122 9.24499H37.0562V15.353H38.4122ZM46.8708 16.577C46.2468 16.577 45.6828 16.437 45.1788 16.157C44.6748 15.869 44.2788 15.469 43.9908 14.957C43.7028 14.437 43.5588 13.837 43.5588 13.157C43.5588 12.485 43.7068 11.889 44.0028 11.369C44.2988 10.849 44.7028 10.449 45.2148 10.169C45.7268 9.88899 46.2988 9.74899 46.9308 9.74899C47.5628 9.74899 48.1348 9.88899 48.6468 10.169C49.1588 10.449 49.5628 10.849 49.8588 11.369C50.1548 11.889 50.3028 12.485 50.3028 13.157C50.3028 13.829 50.1508 14.425 49.8468 14.945C49.5428 15.465 49.1268 15.869 48.5988 16.157C48.0788 16.437 47.5028 16.577 46.8708 16.577ZM46.8708 15.389C47.2228 15.389 47.5508 15.305 47.8548 15.137C48.1668 14.969 48.4188 14.717 48.6108 14.381C48.8028 14.045 48.8988 13.637 48.8988 13.157C48.8988 12.677 48.8068 12.273 48.6228 11.945C48.4388 11.609 48.1948 11.357 47.8908 11.189C47.5868 11.021 47.2588 10.937 46.9068 10.937C46.5548 10.937 46.2268 11.021 45.9228 11.189C45.6268 11.357 45.3908 11.609 45.2148 11.945C45.0388 12.273 44.9508 12.677 44.9508 13.157C44.9508 13.869 45.1308 14.421 45.4908 14.813C45.8588 15.197 46.3188 15.389 46.8708 15.389ZM60.342 9.85699L58.29 16.469H56.85L55.518 11.585L54.186 16.469H52.746L50.682 9.85699H52.074L53.454 15.173L54.858 9.85699H56.286L57.63 15.149L58.998 9.85699H60.342ZM64.5071 9.74899C65.0271 9.74899 65.4911 9.85699 65.8991 10.073C66.3151 10.289 66.6391 10.609 66.8711 11.033C67.1031 11.457 67.2191 11.969 67.2191 12.569V16.469H65.8631V12.773C65.8631 12.181 65.7151 11.729 65.4191 11.417C65.1231 11.097 64.7191 10.937 64.2071 10.937C63.6951 10.937 63.2871 11.097 62.9831 11.417C62.6871 11.729 62.5391 12.181 62.5391 12.773V16.469H61.1711V9.85699H62.5391V10.613C62.7631 10.341 63.0471 10.129 63.3911 9.97699C63.7431 9.82499 64.1151 9.74899 64.5071 9.74899Z" fill="black"/>
<path d="M87.5 7L83 12L78.5 7" stroke="black" stroke-width="1.5" stroke-linecap="round" stroke-linejoin="round"/>
<path d="M88 13L86 15L83 18L78.5 13" stroke="black" stroke-width="1.5" stroke-linecap="round" stroke-linejoin="round"/>
</svg>
